<svg width="121" height="121" viewBox="0 0 121 121" fill="none" xmlns="http://www.w3.org/2000/svg">
<path d="M40 121C62.0914 121 80 103.091 80 81C80 58.9086 62.0914 41 40 41C17.9086 41 0 58.9086 0 81C0 103.091 17.9086 121 40 121Z" fill="#EDF6F8"/>
<path d="M62.8569 121V103.857" stroke="#434D5E" stroke-width="2" stroke-miterlimit="10"/>
<path d="M81.9048 103.857V121" stroke="#434D5E" stroke-width="2" stroke-miterlimit="10"/>
<path d="M87.6193 94.3334V101.952C87.6193 103.006 86.7678 103.857 85.7145 103.857H59.0478C57.9945 103.857 57.1431 103.006 57.1431 101.952V94.3334" stroke="#434D5E" stroke-width="2" stroke-miterlimit="10"/>
<path d="M72.3808 96.2381C98.68 96.2381 120 74.9183 120 48.619C120 22.3198 98.68 1 72.3808 1C46.0815 1 24.7617 22.3198 24.7617 48.619C24.7617 74.9183 46.0815 96.2381 72.3808 96.2381Z" stroke="#434D5E" stroke-width="2" stroke-miterlimit="10"/>
<path d="M81.905 38.1428C81.905 44.8095 78.166 50.5238 72.3812 50.5238C66.5965 50.5238 62.8574 44.8095 62.8574 38.1428C62.8574 31.4761 64.7622 27.6666 72.3812 27.6666C80.0003 27.6666 81.905 31.4761 81.905 38.1428Z" stroke="#434D5E" stroke-width="2" stroke-miterlimit="10"/>
<path d="M78.0954 48.619L91.4287 56.2381C91.4287 56.2381 91.4287 56.8933 91.4287 60.0476C91.4287 63.2019 89.524 65.7619 87.6192 65.7619H57.143C55.2383 65.7619 53.3335 63.2019 53.3335 60.0476C53.3335 56.8933 53.3335 56.2381 53.3335 56.2381L66.6668 48.619" stroke="#434D5E" stroke-width="2" stroke-miterlimit="10"/>
<path d="M72.3809 109.571V121" stroke="#434D5E" stroke-width="2" stroke-miterlimit="10"/>
<path d="M72.3809 88.619C94.4722 88.619 112.381 70.7104 112.381 48.619C112.381 26.5276 94.4722 8.61902 72.3809 8.61902C50.2895 8.61902 32.3809 26.5276 32.3809 48.619C32.3809 70.7104 50.2895 88.619 72.3809 88.619Z" stroke="#434D5E" stroke-width="2" stroke-miterlimit="10"/>
<path d="M41.9048 48.619C41.9048 31.7866 55.5505 18.1428 72.381 18.1428" stroke="#434D5E" stroke-width="2" stroke-miterlimit="10"/>
</svg>
