<svg width="496" height="180" viewBox="0 0 496 180" fill="none" xmlns="http://www.w3.org/2000/svg">
<g opacity="0.53">
<rect x="-139" y="27" width="202" height="126" rx="24" fill="url(#paint0_linear_8577_5488)"/>
<g opacity="0.7" clip-path="url(#clip0_8577_5488)">
<path d="M51.3989 127.835V127.54H51.5221V127.491H51.2264V127.54H51.3496V127.835H51.3989ZM51.9656 127.835V127.491H51.867L51.7685 127.736L51.6699 127.491H51.5714V127.835H51.6453V127.564L51.7438 127.785H51.8177L51.9163 127.564V127.835H51.9656ZM37.1088 129.554C37.1827 129.603 37.2566 129.677 37.3305 129.726C35.9262 130.66 34.2261 131.2 32.4276 131.2C27.4999 131.2 23.5332 127.245 23.5332 122.356C23.5332 117.468 27.4999 113.513 32.4029 113.513C34.2261 113.513 35.9015 114.053 37.3059 114.987C37.232 115.036 37.1581 115.11 37.0842 115.159C34.9899 116.977 33.8073 119.581 33.8073 122.356C33.8073 125.108 35.0146 127.736 37.1088 129.554ZM43.3669 113.513C41.5436 113.513 39.8683 114.053 38.4639 114.987C38.5378 115.036 38.6117 115.11 38.6856 115.159C40.7799 116.977 41.9625 119.581 41.9625 122.356C41.9625 125.108 40.7552 127.736 38.6856 129.554C38.6117 129.603 38.5378 129.677 38.4639 129.726C39.8683 130.66 41.5683 131.2 43.3669 131.2C48.2698 131.2 52.2366 127.245 52.2366 122.356C52.2366 117.468 48.2698 113.513 43.3669 113.513ZM37.8726 115.404C37.7494 115.503 37.6508 115.576 37.5276 115.675C35.6798 117.296 34.4972 119.703 34.4972 122.356C34.4972 125.01 35.6798 127.417 37.5523 129.038C37.6508 129.137 37.774 129.235 37.8972 129.308C38.0204 129.21 38.119 129.137 38.2421 129.038C40.09 127.417 41.2726 125.01 41.2726 122.356C41.2726 119.703 40.09 117.296 38.2175 115.675C38.119 115.601 37.9958 115.503 37.8726 115.404Z" fill="white"/>
</g>
</g>
<rect x="103" width="290" height="180" rx="24" fill="url(#paint1_linear_8577_5488)"/>
<g opacity="0.7" clip-path="url(#clip1_8577_5488)">
<path d="M376.344 144.049V143.628H376.521V143.558H376.096V143.628H376.273V144.049H376.344ZM377.158 144.049V143.558H377.016L376.875 143.909L376.733 143.558H376.592V144.049H376.698V143.663L376.839 143.979H376.945L377.087 143.663V144.049H377.158ZM355.829 146.506C355.935 146.576 356.041 146.681 356.147 146.752C354.131 148.085 351.69 148.857 349.108 148.857C342.034 148.857 336.339 143.207 336.339 136.223C336.339 129.24 342.034 123.59 349.073 123.59C351.69 123.59 354.095 124.362 356.112 125.695C356.005 125.766 355.899 125.871 355.793 125.941C352.787 128.538 351.089 132.258 351.089 136.223C351.089 140.154 352.822 143.909 355.829 146.506ZM364.813 123.59C362.195 123.59 359.79 124.362 357.774 125.695C357.88 125.766 357.986 125.871 358.092 125.941C361.099 128.538 362.797 132.258 362.797 136.223C362.797 140.154 361.064 143.909 358.092 146.506C357.986 146.576 357.88 146.681 357.774 146.752C359.79 148.085 362.231 148.857 364.813 148.857C371.852 148.857 377.547 143.207 377.547 136.223C377.547 129.24 371.852 123.59 364.813 123.59ZM356.925 126.292C356.748 126.432 356.607 126.538 356.43 126.678C353.777 128.994 352.079 132.433 352.079 136.223C352.079 140.014 353.777 143.453 356.465 145.769C356.607 145.909 356.784 146.05 356.96 146.155C357.137 146.015 357.279 145.909 357.456 145.769C360.109 143.453 361.806 140.014 361.806 136.223C361.806 132.433 360.109 128.994 357.42 126.678C357.279 126.573 357.102 126.432 356.925 126.292Z" fill="white"/>
</g>
<g opacity="0.7" clip-path="url(#clip2_8577_5488)">
<path d="M141.009 42.1044C141.009 53.2332 141.009 64.256 141.009 75.3052C144.542 75.3052 148.022 75.3052 151.609 75.3052C151.609 74.8018 151.609 74.3779 151.609 73.9539C151.609 65.9253 151.609 57.8967 151.609 49.868C151.609 48.2517 151.689 48.1722 153.348 48.1457C157.283 48.1457 161.191 48.1457 165.126 48.1457C165.501 48.1457 165.902 48.1192 166.331 48.0927C166.331 47.2713 166.331 46.5824 166.331 45.867C166.304 43.7472 164.912 42.1574 162.797 42.1309C155.597 42.0779 148.37 42.1044 141.009 42.1044Z" fill="#FEFDFD"/>
<path d="M126.313 59.5923C126.313 62.348 126.313 65.0507 126.313 67.7269C130.73 67.7269 135.013 67.7269 139.349 67.7269C139.349 64.9712 139.349 62.295 139.349 59.5923C134.986 59.5923 130.677 59.5923 126.313 59.5923Z" fill="#FEFDFD"/>
<path d="M126.287 57.8966C130.73 57.8966 135.013 57.8966 139.376 57.8966C139.376 55.1409 139.376 52.4647 139.376 49.7355C134.986 49.7355 130.677 49.7355 126.287 49.7355C126.287 52.4912 126.287 55.1409 126.287 57.8966Z" fill="#FEFDFD"/>
<path d="M153.269 49.7355C153.269 52.4647 153.269 55.1674 153.269 57.8966C157.632 57.8966 161.968 57.8966 166.251 57.8966C166.251 55.1144 166.251 52.4647 166.251 49.7355C161.888 49.7355 157.632 49.7355 153.269 49.7355Z" fill="#FEFDFD"/>
<path d="M153.241 59.5658C153.241 62.3745 153.241 65.0507 153.241 67.7269C157.604 67.7269 161.914 67.7269 166.223 67.7269C166.223 64.9712 166.223 62.2685 166.223 59.5658C161.887 59.5658 157.631 59.5658 153.241 59.5658Z" fill="#FEFDFD"/>
<path d="M139.376 42.1841C139.162 42.1311 139.055 42.1046 138.974 42.1046C136.351 42.1046 133.728 42.2371 131.105 42.0781C127.464 41.8396 125.484 44.1714 126.421 48.0664C130.703 48.0664 135.013 48.0664 139.376 48.0664C139.376 46.0792 139.376 44.1714 139.376 42.1841Z" fill="#FEFDFD"/>
<path d="M139.376 69.4227C134.986 69.4227 130.649 69.4227 126.206 69.4227C126.206 70.0057 126.206 70.5356 126.206 71.0655C126.206 73.9537 127.705 75.4111 130.649 75.3846C133.005 75.3846 135.36 75.3846 137.716 75.3846C138.278 75.3846 138.813 75.3316 139.376 75.3051C139.376 73.2383 139.376 71.357 139.376 69.4227Z" fill="#FEFDFD"/>
<path d="M153.161 75.3581C156.561 75.3581 159.799 75.4376 163.038 75.3316C164.644 75.2786 166.063 73.9802 166.25 72.5759C166.384 71.5425 166.277 70.4826 166.277 69.4227C161.86 69.4227 157.551 69.4227 153.188 69.4227C153.161 69.7142 153.161 69.9262 153.161 70.1381C153.161 71.8075 153.161 73.4768 153.161 75.3581Z" fill="#FEFDFD"/>
<path d="M141.009 42.1044C148.37 42.1044 155.597 42.0779 162.797 42.1309C164.912 42.1574 166.277 43.7207 166.331 45.867C166.331 46.5824 166.331 47.2713 166.331 48.0927C165.902 48.1192 165.501 48.1457 165.126 48.1457C161.191 48.1457 157.283 48.1457 153.348 48.1457C151.689 48.1457 151.609 48.2252 151.609 49.868C151.609 57.8967 151.609 65.9253 151.609 73.9539C151.609 74.3779 151.609 74.8018 151.609 75.3052C148.022 75.3052 144.569 75.3052 141.009 75.3052C141.009 64.256 141.009 53.2597 141.009 42.1044Z" fill="white"/>
<path d="M126.313 59.5923C130.65 59.5923 134.959 59.5923 139.349 59.5923C139.349 62.295 139.349 64.9712 139.349 67.7269C135.013 67.7269 130.73 67.7269 126.313 67.7269C126.313 65.0507 126.313 62.348 126.313 59.5923Z" fill="white"/>
<path d="M126.287 57.8966C126.287 55.1409 126.287 52.4647 126.287 49.7355C130.677 49.7355 134.986 49.7355 139.376 49.7355C139.376 52.4647 139.376 55.1409 139.376 57.8966C135.013 57.8966 130.73 57.8966 126.287 57.8966Z" fill="white"/>
<path d="M153.269 49.7355C157.632 49.7355 161.888 49.7355 166.251 49.7355C166.251 52.4382 166.251 55.1144 166.251 57.8966C161.968 57.8966 157.632 57.8966 153.269 57.8966C153.269 55.1409 153.269 52.4647 153.269 49.7355Z" fill="white"/>
<path d="M153.241 59.5658C157.604 59.5658 161.86 59.5658 166.223 59.5658C166.223 62.2685 166.223 64.9712 166.223 67.7269C161.887 67.7269 157.604 67.7269 153.241 67.7269C153.241 65.0507 153.241 62.3745 153.241 59.5658Z" fill="white"/>
<path d="M139.376 42.1841C139.376 44.1714 139.376 46.0792 139.376 48.0929C135.013 48.0929 130.703 48.0929 126.421 48.0929C125.484 44.1714 127.464 41.8396 131.105 42.0781C133.728 42.2106 136.351 42.1046 138.974 42.1046C139.055 42.1046 139.162 42.1311 139.376 42.1841Z" fill="white"/>
<path d="M139.376 69.4227C139.376 71.357 139.376 73.2383 139.376 75.3051C138.84 75.3316 138.278 75.3846 137.716 75.3846C135.36 75.3846 133.005 75.3846 130.649 75.3846C127.705 75.4111 126.206 73.9537 126.206 71.0655C126.206 70.5356 126.206 70.0322 126.206 69.4227C130.649 69.4227 134.986 69.4227 139.376 69.4227Z" fill="white"/>
<path d="M153.161 75.3581C153.161 73.4768 153.161 71.8075 153.161 70.1381C153.161 69.9262 153.188 69.7142 153.188 69.4227C157.551 69.4227 161.86 69.4227 166.277 69.4227C166.277 70.4826 166.384 71.5425 166.25 72.5759C166.063 73.9802 164.644 75.2786 163.038 75.3316C159.826 75.4376 156.561 75.3581 153.161 75.3581Z" fill="white"/>
</g>
<path d="M130.178 132.754V133.668L128.875 133.61L129.633 134.651L128.816 135.135L128.171 133.966L127.525 135.135L126.724 134.651L127.471 133.61L126.18 133.668V132.754L127.471 132.823L126.724 131.766L127.525 131.282L128.171 132.451L128.816 131.282L129.633 131.766L128.875 132.823L130.178 132.754Z" fill="white"/>
<path d="M136.897 132.754V133.668L135.595 133.61L136.353 134.651L135.536 135.135L134.89 133.966L134.244 135.135L133.444 134.651L134.191 133.61L132.899 133.668V132.754L134.191 132.823L133.444 131.766L134.244 131.282L134.89 132.451L135.536 131.282L136.353 131.766L135.595 132.823L136.897 132.754Z" fill="white"/>
<path d="M143.618 132.754V133.668L142.316 133.61L143.074 134.651L142.257 135.135L141.611 133.966L140.965 135.135L140.165 134.651L140.912 133.61L139.62 133.668V132.754L140.912 132.823L140.165 131.766L140.965 131.282L141.611 132.451L142.257 131.282L143.074 131.766L142.316 132.823L143.618 132.754Z" fill="white"/>
<path d="M150.338 132.754V133.668L149.035 133.61L149.793 134.651L148.977 135.135L148.331 133.966L147.685 135.135L146.884 134.651L147.632 133.61L146.34 133.668V132.754L147.632 132.823L146.884 131.766L147.685 131.282L148.331 132.451L148.977 131.282L149.793 131.766L149.035 132.823L150.338 132.754Z" fill="white"/>
<path d="M161.718 132.754V133.668L160.415 133.61L161.173 134.651L160.356 135.135L159.711 133.966L159.065 135.135L158.264 134.651L159.011 133.61L157.72 133.668V132.754L159.011 132.823L158.264 131.766L159.065 131.282L159.711 132.451L160.356 131.282L161.173 131.766L160.415 132.823L161.718 132.754Z" fill="white"/>
<path d="M168.437 132.754V133.668L167.135 133.61L167.893 134.651L167.076 135.135L166.43 133.966L165.785 135.135L164.984 134.651L165.731 133.61L164.439 133.668V132.754L165.731 132.823L164.984 131.766L165.785 131.282L166.43 132.451L167.076 131.282L167.893 131.766L167.135 132.823L168.437 132.754Z" fill="white"/>
<path d="M175.163 132.754V133.668L173.861 133.61L174.618 134.651L173.802 135.135L173.156 133.966L172.51 135.135L171.709 134.651L172.457 133.61L171.165 133.668V132.754L172.457 132.823L171.709 131.766L172.51 131.282L173.156 132.451L173.802 131.282L174.618 131.766L173.861 132.823L175.163 132.754Z" fill="white"/>
<path d="M181.883 132.754V133.668L180.58 133.61L181.338 134.651L180.522 135.135L179.876 133.966L179.23 135.135L178.429 134.651L179.176 133.61L177.885 133.668V132.754L179.176 132.823L178.429 131.766L179.23 131.282L179.876 132.451L180.522 131.282L181.338 131.766L180.58 132.823L181.883 132.754Z" fill="white"/>
<path d="M193.262 132.754V133.668L191.96 133.61L192.718 134.651L191.901 135.135L191.256 133.966L190.61 135.135L189.809 134.651L190.556 133.61L189.265 133.668V132.754L190.556 132.823L189.809 131.766L190.61 131.282L191.256 132.451L191.901 131.282L192.718 131.766L191.96 132.823L193.262 132.754Z" fill="white"/>
<path d="M199.982 132.754V133.668L198.68 133.61L199.438 134.651L198.621 135.135L197.975 133.966L197.329 135.135L196.529 134.651L197.276 133.61L195.984 133.668V132.754L197.276 132.823L196.529 131.766L197.329 131.282L197.975 132.451L198.621 131.282L199.438 131.766L198.68 132.823L199.982 132.754Z" fill="white"/>
<path d="M206.703 132.754V133.668L205.401 133.61L206.158 134.651L205.342 135.135L204.696 133.966L204.05 135.135L203.25 134.651L203.997 133.61L202.705 133.668V132.754L203.997 132.823L203.25 131.766L204.05 131.282L204.696 132.451L205.342 131.282L206.158 131.766L205.401 132.823L206.703 132.754Z" fill="white"/>
<path d="M213.423 132.754V133.668L212.12 133.61L212.878 134.651L212.062 135.135L211.416 133.966L210.77 135.135L209.969 134.651L210.717 133.61L209.425 133.668V132.754L210.717 132.823L209.969 131.766L210.77 131.282L211.416 132.451L212.062 131.282L212.878 131.766L212.12 132.823L213.423 132.754Z" fill="white"/>
<path d="M220.489 141.458V140.374L224.028 136.777C224.973 135.836 225.448 135.028 225.448 134.354C225.448 133.79 225.277 133.355 224.93 133.041C224.589 132.728 224.167 132.568 223.67 132.568C222.726 132.568 222.037 133.014 221.605 133.907L220.489 133.254C220.804 132.605 221.242 132.116 221.802 131.782C222.363 131.447 222.982 131.282 223.66 131.282C224.498 131.282 225.229 131.558 225.854 132.111C226.473 132.664 226.788 133.402 226.788 134.338C226.788 135.347 226.19 136.447 225 137.638L222.443 140.178H226.98V141.464H220.489V141.458Z" fill="white"/>
<path d="M232.979 135.56C233.742 135.703 234.372 136.033 234.858 136.548C235.344 137.064 235.589 137.712 235.589 138.504C235.589 139.476 235.253 140.241 234.586 140.799C233.918 141.363 233.107 141.639 232.152 141.639C231.388 141.639 230.711 141.464 230.118 141.118C229.526 140.773 229.104 140.268 228.858 139.614L229.974 138.961C230.268 139.885 230.999 140.342 232.152 140.342C232.771 140.342 233.278 140.183 233.673 139.859C234.063 139.535 234.26 139.083 234.26 138.504C234.26 137.925 234.063 137.468 233.673 137.143C233.283 136.814 232.776 136.649 232.152 136.649H231.81L231.282 135.836L233.604 132.711H229.147V131.468H235.167L235.162 132.632L232.979 135.56Z" fill="white"/>
<path d="M245.496 138.318V139.556H244.279V141.453H242.944V139.556H237.831V138.318L241.429 131.468H242.859L239.262 138.318H242.944V135.491H244.279V138.318H245.496Z" fill="white"/>
<path d="M250.738 135.363C251.682 135.363 252.483 135.639 253.14 136.197C253.796 136.755 254.122 137.521 254.122 138.504C254.122 139.476 253.785 140.241 253.118 140.799C252.451 141.363 251.64 141.639 250.684 141.639C249.921 141.639 249.238 141.458 248.635 141.092C248.032 140.725 247.61 140.194 247.375 139.503L248.507 138.86C248.64 139.343 248.896 139.715 249.281 139.965C249.665 140.215 250.129 140.342 250.684 140.342C251.314 140.342 251.827 140.183 252.216 139.859C252.606 139.535 252.803 139.083 252.803 138.504C252.803 137.925 252.606 137.468 252.216 137.143C251.827 136.814 251.325 136.649 250.711 136.649H247.877L248.234 131.468H253.737V132.711H249.451L249.275 135.363H250.738Z" fill="white"/>
<rect x="433" y="27" width="202" height="126" rx="24" fill="url(#paint2_linear_8577_5488)"/>
<g opacity="0.7" clip-path="url(#clip3_8577_5488)">
<path d="M459.475 56.473C459.475 64.2632 459.475 71.9791 459.475 79.7136C461.936 79.7136 464.36 79.7136 466.858 79.7136C466.858 79.3612 466.858 79.0644 466.858 78.7677C466.858 73.1476 466.858 67.5276 466.858 61.9076C466.858 60.7761 466.914 60.7205 468.07 60.702C470.811 60.702 473.533 60.702 476.274 60.702C476.535 60.702 476.814 60.6834 477.113 60.6649C477.113 60.0899 477.113 59.6076 477.113 59.1068C477.094 57.623 476.124 56.5101 474.651 56.4916C469.636 56.4545 464.602 56.473 459.475 56.473Z" fill="#FEFDFD"/>
<path d="M449.238 68.7146C449.238 70.6436 449.238 72.5355 449.238 74.4088C452.315 74.4088 455.298 74.4088 458.318 74.4088C458.318 72.4798 458.318 70.6065 458.318 68.7146C455.279 68.7146 452.277 68.7146 449.238 68.7146Z" fill="#FEFDFD"/>
<path d="M449.22 67.5276C452.315 67.5276 455.298 67.5276 458.337 67.5276C458.337 65.5986 458.337 63.7253 458.337 61.8148C455.279 61.8148 452.277 61.8148 449.22 61.8148C449.22 63.7438 449.22 65.5986 449.22 67.5276Z" fill="#FEFDFD"/>
<path d="M468.014 61.8148C468.014 63.7253 468.014 65.6172 468.014 67.5276C471.053 67.5276 474.073 67.5276 477.056 67.5276C477.056 65.5801 477.056 63.7253 477.056 61.8148C474.017 61.8148 471.053 61.8148 468.014 61.8148Z" fill="#FEFDFD"/>
<path d="M467.995 68.6962C467.995 70.6623 467.995 72.5356 467.995 74.4089C471.034 74.4089 474.036 74.4089 477.038 74.4089C477.038 72.48 477.038 70.5881 477.038 68.6962C474.017 68.6962 471.053 68.6962 467.995 68.6962Z" fill="#FEFDFD"/>
<path d="M458.337 56.5289C458.188 56.4918 458.114 56.4732 458.058 56.4732C456.231 56.4732 454.403 56.566 452.576 56.4547C450.04 56.2877 448.661 57.92 449.313 60.6465C452.296 60.6465 455.298 60.6465 458.337 60.6465C458.337 59.2554 458.337 57.92 458.337 56.5289Z" fill="#FEFDFD"/>
<path d="M458.337 75.5959C455.28 75.5959 452.259 75.5959 449.164 75.5959C449.164 76.004 449.164 76.375 449.164 76.7459C449.164 78.7676 450.208 79.7878 452.259 79.7692C453.9 79.7692 455.541 79.7692 457.181 79.7692C457.573 79.7692 457.946 79.7321 458.337 79.7136C458.337 78.2669 458.337 76.9499 458.337 75.5959Z" fill="#FEFDFD"/>
<path d="M467.939 79.7507C470.307 79.7507 472.563 79.8063 474.819 79.7321C475.938 79.695 476.926 78.7862 477.057 77.8032C477.15 77.0798 477.075 76.3379 477.075 75.5959C473.999 75.5959 470.997 75.5959 467.958 75.5959C467.939 75.8 467.939 75.9484 467.939 76.0967C467.939 77.2653 467.939 78.4338 467.939 79.7507Z" fill="#FEFDFD"/>
<path d="M459.475 56.473C464.602 56.473 469.636 56.4545 474.651 56.4916C476.124 56.5101 477.075 57.6044 477.113 59.1068C477.113 59.6076 477.113 60.0899 477.113 60.6649C476.814 60.6834 476.535 60.702 476.274 60.702C473.533 60.702 470.811 60.702 468.07 60.702C466.914 60.702 466.858 60.7576 466.858 61.9076C466.858 67.5276 466.858 73.1476 466.858 78.7677C466.858 79.0644 466.858 79.3612 466.858 79.7136C464.36 79.7136 461.954 79.7136 459.475 79.7136C459.475 71.9791 459.475 64.2817 459.475 56.473Z" fill="white"/>
<path d="M449.238 68.7146C452.259 68.7146 455.261 68.7146 458.318 68.7146C458.318 70.6065 458.318 72.4798 458.318 74.4088C455.298 74.4088 452.315 74.4088 449.238 74.4088C449.238 72.5355 449.238 70.6436 449.238 68.7146Z" fill="white"/>
<path d="M449.22 67.5276C449.22 65.5986 449.22 63.7253 449.22 61.8148C452.277 61.8148 455.279 61.8148 458.337 61.8148C458.337 63.7253 458.337 65.5986 458.337 67.5276C455.298 67.5276 452.315 67.5276 449.22 67.5276Z" fill="white"/>
<path d="M468.014 61.8148C471.053 61.8148 474.017 61.8148 477.056 61.8148C477.056 63.7067 477.056 65.5801 477.056 67.5276C474.073 67.5276 471.053 67.5276 468.014 67.5276C468.014 65.5986 468.014 63.7253 468.014 61.8148Z" fill="white"/>
<path d="M467.995 68.6962C471.034 68.6962 473.999 68.6962 477.038 68.6962C477.038 70.5881 477.038 72.48 477.038 74.4089C474.017 74.4089 471.034 74.4089 467.995 74.4089C467.995 72.5356 467.995 70.6623 467.995 68.6962Z" fill="white"/>
<path d="M458.337 56.5289C458.337 57.92 458.337 59.2554 458.337 60.6651C455.298 60.6651 452.296 60.6651 449.313 60.6651C448.661 57.92 450.04 56.2877 452.576 56.4547C454.403 56.5474 456.231 56.4732 458.058 56.4732C458.114 56.4732 458.188 56.4918 458.337 56.5289Z" fill="white"/>
<path d="M458.337 75.5959C458.337 76.9499 458.337 78.2669 458.337 79.7136C457.964 79.7321 457.573 79.7692 457.181 79.7692C455.541 79.7692 453.9 79.7692 452.259 79.7692C450.208 79.7878 449.164 78.7676 449.164 76.7459C449.164 76.375 449.164 76.0226 449.164 75.5959C452.259 75.5959 455.28 75.5959 458.337 75.5959Z" fill="white"/>
<path d="M467.939 79.7507C467.939 78.4338 467.939 77.2653 467.939 76.0967C467.939 75.9484 467.958 75.8 467.958 75.5959C470.997 75.5959 473.999 75.5959 477.075 75.5959C477.075 76.3379 477.15 77.0798 477.057 77.8032C476.926 78.7862 475.938 79.695 474.819 79.7321C472.582 79.8063 470.307 79.7507 467.939 79.7507Z" fill="white"/>
</g>
<path d="M451.93 119.928V120.568L451.023 120.527L451.551 121.256L450.982 121.594L450.532 120.776L450.082 121.594L449.525 121.256L450.045 120.527L449.146 120.568V119.928L450.045 119.976L449.525 119.236L450.082 118.897L450.532 119.716L450.982 118.897L451.551 119.236L451.023 119.976L451.93 119.928Z" fill="white"/>
<path d="M456.611 119.928V120.568L455.704 120.527L456.232 121.256L455.663 121.594L455.213 120.776L454.763 121.594L454.205 121.256L454.726 120.527L453.826 120.568V119.928L454.726 119.976L454.205 119.236L454.763 118.897L455.213 119.716L455.663 118.897L456.232 119.236L455.704 119.976L456.611 119.928Z" fill="white"/>
<path d="M461.292 119.928V120.568L460.384 120.527L460.912 121.256L460.343 121.594L459.894 120.776L459.444 121.594L458.886 121.256L459.407 120.527L458.507 120.568V119.928L459.407 119.976L458.886 119.236L459.444 118.897L459.894 119.716L460.343 118.897L460.912 119.236L460.384 119.976L461.292 119.928Z" fill="white"/>
<path d="M465.973 119.928V120.568L465.066 120.527L465.594 121.256L465.025 121.594L464.575 120.776L464.125 121.594L463.568 121.256L464.088 120.527L463.188 120.568V119.928L464.088 119.976L463.568 119.236L464.125 118.897L464.575 119.716L465.025 118.897L465.594 119.236L465.066 119.976L465.973 119.928Z" fill="white"/>
<path d="M473.899 119.928V120.568L472.992 120.527L473.52 121.256L472.951 121.594L472.501 120.776L472.051 121.594L471.493 121.256L472.014 120.527L471.114 120.568V119.928L472.014 119.976L471.493 119.236L472.051 118.897L472.501 119.716L472.951 118.897L473.52 119.236L472.992 119.976L473.899 119.928Z" fill="white"/>
<path d="M478.581 119.928V120.568L477.673 120.527L478.201 121.256L477.633 121.594L477.183 120.776L476.733 121.594L476.175 121.256L476.696 120.527L475.796 120.568V119.928L476.696 119.976L476.175 119.236L476.733 118.897L477.183 119.716L477.633 118.897L478.201 119.236L477.673 119.976L478.581 119.928Z" fill="white"/>
<path d="M483.265 119.928V120.568L482.358 120.527L482.886 121.256L482.317 121.594L481.867 120.776L481.417 121.594L480.86 121.256L481.38 120.527L480.48 120.568V119.928L481.38 119.976L480.86 119.236L481.417 118.897L481.867 119.716L482.317 118.897L482.886 119.236L482.358 119.976L483.265 119.928Z" fill="white"/>
<path d="M487.946 119.928V120.568L487.039 120.527L487.567 121.256L486.998 121.594L486.548 120.776L486.098 121.594L485.54 121.256L486.061 120.527L485.161 120.568V119.928L486.061 119.976L485.54 119.236L486.098 118.897L486.548 119.716L486.998 118.897L487.567 119.236L487.039 119.976L487.946 119.928Z" fill="white"/>
<path d="M495.873 119.928V120.568L494.965 120.527L495.493 121.256L494.925 121.594L494.475 120.776L494.025 121.594L493.467 121.256L493.988 120.527L493.088 120.568V119.928L493.988 119.976L493.467 119.236L494.025 118.897L494.475 119.716L494.925 118.897L495.493 119.236L494.965 119.976L495.873 119.928Z" fill="white"/>
<defs>
<linearGradient id="paint0_linear_8577_5488" x1="326.749" y1="174.53" x2="20.2299" y2="-178.464" gradientUnits="userSpaceOnUse">
<stop stop-color="#02CAFD"/>
<stop offset="1" stop-color="#83F8A6"/>
</linearGradient>
<linearGradient id="paint1_linear_8577_5488" x1="174.083" y1="109.231" x2="414.332" y2="-80.5216" gradientUnits="userSpaceOnUse">
<stop stop-color="#50BEDE"/>
<stop offset="0.775" stop-color="#5DCCE5"/>
</linearGradient>
<linearGradient id="paint2_linear_8577_5488" x1="534.179" y1="0.615381" x2="419.42" y2="267.966" gradientUnits="userSpaceOnUse">
<stop stop-color="#23D3A4"/>
<stop offset="1" stop-color="#5B49CF"/>
</linearGradient>
<clipPath id="clip0_8577_5488">
<rect width="28.7034" height="22.2564" fill="white" transform="translate(23.5332 113.513)"/>
</clipPath>
<clipPath id="clip1_8577_5488">
<rect width="41.2078" height="31.7949" fill="white" transform="translate(336.339 123.59)"/>
</clipPath>
<clipPath id="clip2_8577_5488">
<rect width="40.1776" height="33.3333" fill="white" transform="translate(126.18 42.0513)"/>
</clipPath>
<clipPath id="clip3_8577_5488">
<rect width="27.9858" height="23.3333" fill="white" transform="translate(449.146 56.4359)"/>
</clipPath>
</defs>
</svg>
