<svg width="104" height="104" viewBox="0 0 104 104" fill="none" xmlns="http://www.w3.org/2000/svg">
<g clip-path="url(#clip0_8690_14881)">
<path d="M69.875 68.25C88.7217 68.25 104 52.9717 104 34.125C104 15.2783 88.7217 0 69.875 0C51.0283 0 35.75 15.2783 35.75 34.125C35.75 52.9717 51.0283 68.25 69.875 68.25Z" fill="#EDF6F8"/>
<path d="M19.5 66.625H13C6.71937 66.625 1.625 61.5322 1.625 55.25" stroke="#222829" stroke-width="2" stroke-miterlimit="10"/>
<path d="M71.5 66.625H32.5" stroke="#222829" stroke-width="2" stroke-miterlimit="10"/>
<path d="M102.375 55.25C102.375 61.5322 97.2806 66.625 91 66.625H84.5" stroke="#222829" stroke-width="2" stroke-miterlimit="10"/>
<path d="M73.125 99.125H30.875" stroke="#222829" stroke-width="2" stroke-miterlimit="10"/>
<path d="M30.875 27.625H73.125" stroke="#222829" stroke-width="2" stroke-miterlimit="10"/>
<path d="M32.5 60.125H19.5V73.125H32.5V60.125Z" stroke="#238CAA" stroke-width="2" stroke-miterlimit="10"/>
<path d="M84.5 60.125H71.5V73.125H84.5V60.125Z" stroke="#238CAA" stroke-width="2" stroke-miterlimit="10"/>
<path d="M43.875 60.125H60.125" stroke="#222829" stroke-width="2" stroke-miterlimit="10"/>
<path d="M78 73.125V65" stroke="#238CAA" stroke-width="2" stroke-miterlimit="10"/>
<path d="M26 73.125V65" stroke="#238CAA" stroke-width="2" stroke-miterlimit="10"/>
<path d="M76.375 47.125H79.625" stroke="#222829" stroke-width="2" stroke-miterlimit="10"/>
<path d="M76.375 53.625H79.625" stroke="#222829" stroke-width="2" stroke-miterlimit="10"/>
<path d="M76.375 79.625H79.625" stroke="#222829" stroke-width="2" stroke-miterlimit="10"/>
<path d="M76.375 86.125H79.625" stroke="#222829" stroke-width="2" stroke-miterlimit="10"/>
<path d="M24.375 47.125H27.625" stroke="#222829" stroke-width="2" stroke-miterlimit="10"/>
<path d="M24.375 53.625H27.625" stroke="#222829" stroke-width="2" stroke-miterlimit="10"/>
<path d="M24.375 79.625H27.625" stroke="#222829" stroke-width="2" stroke-miterlimit="10"/>
<path d="M24.375 86.125H27.625" stroke="#222829" stroke-width="2" stroke-miterlimit="10"/>
<path d="M37.375 21.125H66.625" stroke="#238CAA" stroke-width="2" stroke-miterlimit="10"/>
<path d="M52 55.25V52" stroke="#222829" stroke-width="2" stroke-miterlimit="10"/>
<path d="M82.875 73.125V102.375H73.125V73.125" stroke="#222829" stroke-width="2" stroke-miterlimit="10"/>
<path d="M30.875 73.125V102.375H21.125V73.125" stroke="#222829" stroke-width="2" stroke-miterlimit="10"/>
<path d="M21.125 60.125V24.375H30.875V60.125" stroke="#222829" stroke-width="2" stroke-miterlimit="10"/>
<path d="M73.125 60.125V24.375H82.875V60.125" stroke="#222829" stroke-width="2" stroke-miterlimit="10"/>
<path d="M37.375 27.625V17.875C37.375 16.081 38.8294 14.625 40.625 14.625H63.375C65.169 14.625 66.625 16.081 66.625 17.875V27.625" stroke="#238CAA" stroke-width="2" stroke-miterlimit="10"/>
<path d="M82.875 27.625H102.375V99.125H82.875" stroke="#222829" stroke-width="2" stroke-miterlimit="10" stroke-linejoin="round"/>
<path d="M21.125 99.125H1.625V27.625H21.125" stroke="#222829" stroke-width="2" stroke-miterlimit="10" stroke-linejoin="round"/>
</g>
<defs>
<clipPath id="clip0_8690_14881">
<rect width="104" height="104" fill="white"/>
</clipPath>
</defs>
</svg>
