<svg width="104" height="104" viewBox="0 0 104 104" fill="none" xmlns="http://www.w3.org/2000/svg">
<g clip-path="url(#clip0_8541_6329)">
<path d="M102.875 34.125C102.875 52.9701 87.5984 68.25 68.75 68.25C49.9016 68.25 34.625 52.9701 34.625 34.125C34.625 15.2685 49.9016 0 68.75 0C87.5984 0 102.875 15.2685 102.875 34.125Z" fill="#EDF6F8"/>
<path d="M75.25 1.625H26.5V102.375H75.25V1.625Z" stroke="#434D5E" stroke-width="2" stroke-miterlimit="10" stroke-linejoin="round"/>
<path d="M31.375 87.75H70.375" stroke="#434D5E" stroke-width="2" stroke-miterlimit="10" stroke-linejoin="round"/>
<path d="M36.25 87.75V102.375" stroke="#434D5E" stroke-width="2" stroke-miterlimit="10" stroke-linejoin="round"/>
<path d="M65.5 87.75V102.375" stroke="#434D5E" stroke-width="2" stroke-miterlimit="10" stroke-linejoin="round"/>
<path d="M50.875 87.75V102.375" stroke="#434D5E" stroke-width="2" stroke-miterlimit="10" stroke-linejoin="round"/>
<path d="M55.75 94.25H59" stroke="#434D5E" stroke-width="2" stroke-miterlimit="10" stroke-linejoin="round"/>
<path d="M42.75 94.25H46" stroke="#434D5E" stroke-width="2" stroke-miterlimit="10" stroke-linejoin="round"/>
<path d="M67.125 73.125H60.625V79.625H67.125V73.125Z" stroke="#434D5E" stroke-width="2" stroke-miterlimit="10" stroke-linejoin="round"/>
<path d="M54.125 73.125H47.625V79.625H54.125V73.125Z" stroke="#434D5E" stroke-width="2" stroke-miterlimit="10" stroke-linejoin="round"/>
<path d="M41.125 73.125H34.625V79.625H41.125V73.125Z" stroke="#434D5E" stroke-width="2" stroke-miterlimit="10" stroke-linejoin="round"/>
<path d="M67.125 58.5H60.625V65H67.125V58.5Z" stroke="#434D5E" stroke-width="2" stroke-miterlimit="10" stroke-linejoin="round"/>
<path d="M54.125 58.5H47.625V65H54.125V58.5Z" stroke="#434D5E" stroke-width="2" stroke-miterlimit="10" stroke-linejoin="round"/>
<path d="M41.125 58.5H34.625V65H41.125V58.5Z" stroke="#434D5E" stroke-width="2" stroke-miterlimit="10" stroke-linejoin="round"/>
<path d="M67.125 43.875H60.625V50.375H67.125V43.875Z" stroke="#434D5E" stroke-width="2" stroke-miterlimit="10" stroke-linejoin="round"/>
<path d="M54.125 43.875H47.625V50.375H54.125V43.875Z" stroke="#434D5E" stroke-width="2" stroke-miterlimit="10" stroke-linejoin="round"/>
<path d="M41.125 43.875H34.625V50.375H41.125V43.875Z" stroke="#434D5E" stroke-width="2" stroke-miterlimit="10" stroke-linejoin="round"/>
<path d="M67.125 29.25H60.625V35.75H67.125V29.25Z" stroke="#434D5E" stroke-width="2" stroke-miterlimit="10" stroke-linejoin="round"/>
<path d="M54.125 29.25H47.625V35.75H54.125V29.25Z" stroke="#434D5E" stroke-width="2" stroke-miterlimit="10" stroke-linejoin="round"/>
<path d="M41.125 29.25H34.625V35.75H41.125V29.25Z" stroke="#434D5E" stroke-width="2" stroke-miterlimit="10" stroke-linejoin="round"/>
<path d="M67.125 14.625H60.625V21.125H67.125V14.625Z" stroke="#434D5E" stroke-width="2" stroke-miterlimit="10" stroke-linejoin="round"/>
<path d="M54.125 14.625H47.625V21.125H54.125V14.625Z" stroke="#434D5E" stroke-width="2" stroke-miterlimit="10" stroke-linejoin="round"/>
<path d="M41.125 14.625H34.625V21.125H41.125V14.625Z" stroke="#434D5E" stroke-width="2" stroke-miterlimit="10" stroke-linejoin="round"/>
<path d="M101.25 35.75H75.25V102.375H101.25V35.75Z" stroke="#434D5E" stroke-width="2" stroke-miterlimit="10" stroke-linejoin="round"/>
<path d="M80.125 43.875H83.375" stroke="#434D5E" stroke-width="2" stroke-miterlimit="10" stroke-linejoin="round"/>
<path d="M86.625 43.875H89.875" stroke="#434D5E" stroke-width="2" stroke-miterlimit="10" stroke-linejoin="round"/>
<path d="M93.125 43.875H96.375" stroke="#434D5E" stroke-width="2" stroke-miterlimit="10" stroke-linejoin="round"/>
<path d="M80.125 50.375H83.375" stroke="#434D5E" stroke-width="2" stroke-miterlimit="10" stroke-linejoin="round"/>
<path d="M86.625 50.375H89.875" stroke="#434D5E" stroke-width="2" stroke-miterlimit="10" stroke-linejoin="round"/>
<path d="M93.125 50.375H96.375" stroke="#434D5E" stroke-width="2" stroke-miterlimit="10" stroke-linejoin="round"/>
<path d="M80.125 73.125H83.375" stroke="#434D5E" stroke-width="2" stroke-miterlimit="10" stroke-linejoin="round"/>
<path d="M86.625 73.125H89.875" stroke="#434D5E" stroke-width="2" stroke-miterlimit="10" stroke-linejoin="round"/>
<path d="M93.125 73.125H96.375" stroke="#434D5E" stroke-width="2" stroke-miterlimit="10" stroke-linejoin="round"/>
<path d="M80.125 79.625H83.375" stroke="#434D5E" stroke-width="2" stroke-miterlimit="10" stroke-linejoin="round"/>
<path d="M86.625 79.625H89.875" stroke="#434D5E" stroke-width="2" stroke-miterlimit="10" stroke-linejoin="round"/>
<path d="M93.125 79.625H96.375" stroke="#434D5E" stroke-width="2" stroke-miterlimit="10" stroke-linejoin="round"/>
<path d="M80.125 58.5H83.375" stroke="#434D5E" stroke-width="2" stroke-miterlimit="10" stroke-linejoin="round"/>
<path d="M86.625 58.5H89.875" stroke="#434D5E" stroke-width="2" stroke-miterlimit="10" stroke-linejoin="round"/>
<path d="M93.125 58.5H96.375" stroke="#434D5E" stroke-width="2" stroke-miterlimit="10" stroke-linejoin="round"/>
<path d="M80.125 65H83.375" stroke="#434D5E" stroke-width="2" stroke-miterlimit="10" stroke-linejoin="round"/>
<path d="M86.625 65H89.875" stroke="#434D5E" stroke-width="2" stroke-miterlimit="10" stroke-linejoin="round"/>
<path d="M93.125 65H96.375" stroke="#434D5E" stroke-width="2" stroke-miterlimit="10" stroke-linejoin="round"/>
<path d="M33 8.125H68.75" stroke="#434D5E" stroke-width="2" stroke-miterlimit="10" stroke-linejoin="round"/>
<path d="M81.75 35.75V30.875" stroke="#434D5E" stroke-width="2" stroke-miterlimit="10" stroke-linejoin="round"/>
<path d="M94.75 30.875V35.75" stroke="#434D5E" stroke-width="2" stroke-miterlimit="10" stroke-linejoin="round"/>
<path d="M80.125 87.75H101.25" stroke="#434D5E" stroke-width="2" stroke-miterlimit="10" stroke-linejoin="round"/>
<path d="M80.125 94.25H101.25" stroke="#434D5E" stroke-width="2" stroke-miterlimit="10" stroke-linejoin="round"/>
<path d="M26.5 35.75H0.5V102.375H26.5V35.75Z" stroke="#434D5E" stroke-width="2" stroke-miterlimit="10" stroke-linejoin="round"/>
<path d="M5.375 43.875H8.625" stroke="#434D5E" stroke-width="2" stroke-miterlimit="10" stroke-linejoin="round"/>
<path d="M11.875 43.875H15.125" stroke="#434D5E" stroke-width="2" stroke-miterlimit="10" stroke-linejoin="round"/>
<path d="M18.375 43.875H21.625" stroke="#434D5E" stroke-width="2" stroke-miterlimit="10" stroke-linejoin="round"/>
<path d="M5.375 50.375H8.625" stroke="#434D5E" stroke-width="2" stroke-miterlimit="10" stroke-linejoin="round"/>
<path d="M11.875 50.375H15.125" stroke="#434D5E" stroke-width="2" stroke-miterlimit="10" stroke-linejoin="round"/>
<path d="M18.375 50.375H21.625" stroke="#434D5E" stroke-width="2" stroke-miterlimit="10" stroke-linejoin="round"/>
<path d="M5.375 73.125H8.625" stroke="#434D5E" stroke-width="2" stroke-miterlimit="10" stroke-linejoin="round"/>
<path d="M11.875 73.125H15.125" stroke="#434D5E" stroke-width="2" stroke-miterlimit="10" stroke-linejoin="round"/>
<path d="M18.375 73.125H21.625" stroke="#434D5E" stroke-width="2" stroke-miterlimit="10" stroke-linejoin="round"/>
<path d="M5.375 79.625H8.625" stroke="#434D5E" stroke-width="2" stroke-miterlimit="10" stroke-linejoin="round"/>
<path d="M11.875 79.625H15.125" stroke="#434D5E" stroke-width="2" stroke-miterlimit="10" stroke-linejoin="round"/>
<path d="M18.375 79.625H21.625" stroke="#434D5E" stroke-width="2" stroke-miterlimit="10" stroke-linejoin="round"/>
<path d="M5.375 58.5H8.625" stroke="#434D5E" stroke-width="2" stroke-miterlimit="10" stroke-linejoin="round"/>
<path d="M11.875 58.5H15.125" stroke="#434D5E" stroke-width="2" stroke-miterlimit="10" stroke-linejoin="round"/>
<path d="M18.375 58.5H21.625" stroke="#434D5E" stroke-width="2" stroke-miterlimit="10" stroke-linejoin="round"/>
<path d="M5.375 65H8.625" stroke="#434D5E" stroke-width="2" stroke-miterlimit="10" stroke-linejoin="round"/>
<path d="M11.875 65H15.125" stroke="#434D5E" stroke-width="2" stroke-miterlimit="10" stroke-linejoin="round"/>
<path d="M18.375 65H21.625" stroke="#434D5E" stroke-width="2" stroke-miterlimit="10" stroke-linejoin="round"/>
<path d="M7 35.75V30.875" stroke="#434D5E" stroke-width="2" stroke-miterlimit="10" stroke-linejoin="round"/>
<path d="M20 30.875V35.75" stroke="#434D5E" stroke-width="2" stroke-miterlimit="10" stroke-linejoin="round"/>
<path d="M0.5 87.75H21.625" stroke="#434D5E" stroke-width="2" stroke-miterlimit="10" stroke-linejoin="round"/>
<path d="M0.5 94.25H21.625" stroke="#434D5E" stroke-width="2" stroke-miterlimit="10" stroke-linejoin="round"/>
</g>
<defs>
<clipPath id="clip0_8541_6329">
<rect width="104" height="104" fill="white"/>
</clipPath>
</defs>
</svg>
