<svg width="496" height="228" viewBox="0 0 496 228" fill="none" xmlns="http://www.w3.org/2000/svg">
<g opacity="0.53">
<rect x="-139" y="51" width="202" height="126" rx="24" fill="url(#paint0_linear_8577_5488)"/>
<g opacity="0.7" clip-path="url(#clip0_8577_5488)">
<path d="M51.3989 151.835V151.54H51.5221V151.491H51.2264V151.54H51.3496V151.835H51.3989ZM51.9656 151.835V151.491H51.867L51.7685 151.736L51.6699 151.491H51.5714V151.835H51.6453V151.564L51.7438 151.785H51.8177L51.9163 151.564V151.835H51.9656ZM37.1088 153.554C37.1827 153.603 37.2566 153.677 37.3305 153.726C35.9262 154.66 34.2261 155.2 32.4276 155.2C27.4999 155.2 23.5332 151.245 23.5332 146.356C23.5332 141.468 27.4999 137.513 32.4029 137.513C34.2261 137.513 35.9015 138.053 37.3059 138.987C37.232 139.036 37.1581 139.11 37.0842 139.159C34.9899 140.977 33.8073 143.581 33.8073 146.356C33.8073 149.108 35.0146 151.736 37.1088 153.554ZM43.3669 137.513C41.5436 137.513 39.8683 138.053 38.4639 138.987C38.5378 139.036 38.6117 139.11 38.6856 139.159C40.7799 140.977 41.9625 143.581 41.9625 146.356C41.9625 149.108 40.7552 151.736 38.6856 153.554C38.6117 153.603 38.5378 153.677 38.4639 153.726C39.8683 154.66 41.5683 155.2 43.3669 155.2C48.2698 155.2 52.2366 151.245 52.2366 146.356C52.2366 141.468 48.2698 137.513 43.3669 137.513ZM37.8726 139.404C37.7494 139.503 37.6508 139.576 37.5276 139.675C35.6798 141.296 34.4972 143.703 34.4972 146.356C34.4972 149.01 35.6798 151.417 37.5523 153.038C37.6508 153.137 37.774 153.235 37.8972 153.308C38.0204 153.21 38.119 153.137 38.2421 153.038C40.09 151.417 41.2726 149.01 41.2726 146.356C41.2726 143.703 40.09 141.296 38.2175 139.675C38.119 139.601 37.9958 139.503 37.8726 139.404Z" fill="white"/>
</g>
</g>
<g filter="url(#filter0_d_8577_5488)">
<rect x="103" y="24" width="290" height="180" rx="24" fill="url(#paint1_linear_8577_5488)"/>
<g opacity="0.7" clip-path="url(#clip1_8577_5488)">
<path d="M376.344 168.049V167.628H376.521V167.558H376.096V167.628H376.273V168.049H376.344ZM377.158 168.049V167.558H377.016L376.875 167.909L376.733 167.558H376.592V168.049H376.698V167.663L376.839 167.979H376.945L377.087 167.663V168.049H377.158ZM355.829 170.506C355.935 170.576 356.041 170.681 356.147 170.752C354.131 172.085 351.69 172.857 349.108 172.857C342.034 172.857 336.339 167.207 336.339 160.223C336.339 153.24 342.034 147.59 349.073 147.59C351.69 147.59 354.095 148.362 356.112 149.695C356.005 149.766 355.899 149.871 355.793 149.941C352.787 152.538 351.089 156.258 351.089 160.223C351.089 164.154 352.822 167.909 355.829 170.506ZM364.813 147.59C362.195 147.59 359.79 148.362 357.774 149.695C357.88 149.766 357.986 149.871 358.092 149.941C361.099 152.538 362.797 156.258 362.797 160.223C362.797 164.154 361.064 167.909 358.092 170.506C357.986 170.576 357.88 170.681 357.774 170.752C359.79 172.085 362.231 172.857 364.813 172.857C371.852 172.857 377.547 167.207 377.547 160.223C377.547 153.24 371.852 147.59 364.813 147.59ZM356.925 150.292C356.748 150.432 356.607 150.538 356.43 150.678C353.777 152.994 352.079 156.433 352.079 160.223C352.079 164.014 353.777 167.453 356.465 169.769C356.607 169.909 356.784 170.05 356.96 170.155C357.137 170.015 357.279 169.909 357.456 169.769C360.109 167.453 361.806 164.014 361.806 160.223C361.806 156.433 360.109 152.994 357.42 150.678C357.279 150.573 357.102 150.432 356.925 150.292Z" fill="white"/>
</g>
<g opacity="0.7" clip-path="url(#clip2_8577_5488)">
<path d="M141.009 66.1044C141.009 77.2332 141.009 88.256 141.009 99.3052C144.542 99.3052 148.022 99.3052 151.609 99.3052C151.609 98.8018 151.609 98.3779 151.609 97.9539C151.609 89.9253 151.609 81.8967 151.609 73.868C151.609 72.2517 151.689 72.1722 153.348 72.1457C157.283 72.1457 161.191 72.1457 165.126 72.1457C165.501 72.1457 165.902 72.1192 166.331 72.0927C166.331 71.2713 166.331 70.5824 166.331 69.867C166.304 67.7472 164.912 66.1574 162.797 66.1309C155.597 66.0779 148.37 66.1044 141.009 66.1044Z" fill="#FEFDFD"/>
<path d="M126.313 83.5923C126.313 86.348 126.313 89.0507 126.313 91.7269C130.73 91.7269 135.013 91.7269 139.349 91.7269C139.349 88.9712 139.349 86.295 139.349 83.5923C134.986 83.5923 130.677 83.5923 126.313 83.5923Z" fill="#FEFDFD"/>
<path d="M126.287 81.8966C130.73 81.8966 135.013 81.8966 139.376 81.8966C139.376 79.1409 139.376 76.4647 139.376 73.7355C134.986 73.7355 130.677 73.7355 126.287 73.7355C126.287 76.4912 126.287 79.1409 126.287 81.8966Z" fill="#FEFDFD"/>
<path d="M153.269 73.7355C153.269 76.4647 153.269 79.1674 153.269 81.8966C157.632 81.8966 161.968 81.8966 166.251 81.8966C166.251 79.1144 166.251 76.4647 166.251 73.7355C161.888 73.7355 157.632 73.7355 153.269 73.7355Z" fill="#FEFDFD"/>
<path d="M153.241 83.5658C153.241 86.3745 153.241 89.0507 153.241 91.7269C157.604 91.7269 161.914 91.7269 166.223 91.7269C166.223 88.9712 166.223 86.2685 166.223 83.5658C161.887 83.5658 157.631 83.5658 153.241 83.5658Z" fill="#FEFDFD"/>
<path d="M139.376 66.1841C139.162 66.1311 139.055 66.1046 138.974 66.1046C136.351 66.1046 133.728 66.2371 131.105 66.0781C127.464 65.8396 125.484 68.1714 126.421 72.0664C130.703 72.0664 135.013 72.0664 139.376 72.0664C139.376 70.0792 139.376 68.1714 139.376 66.1841Z" fill="#FEFDFD"/>
<path d="M139.376 93.4227C134.986 93.4227 130.649 93.4227 126.206 93.4227C126.206 94.0057 126.206 94.5356 126.206 95.0655C126.206 97.9537 127.705 99.4111 130.649 99.3846C133.005 99.3846 135.36 99.3846 137.716 99.3846C138.278 99.3846 138.813 99.3316 139.376 99.3051C139.376 97.2383 139.376 95.357 139.376 93.4227Z" fill="#FEFDFD"/>
<path d="M153.161 99.3581C156.561 99.3581 159.799 99.4376 163.038 99.3316C164.644 99.2786 166.063 97.9802 166.25 96.5759C166.384 95.5425 166.277 94.4826 166.277 93.4227C161.86 93.4227 157.551 93.4227 153.188 93.4227C153.161 93.7142 153.161 93.9262 153.161 94.1381C153.161 95.8075 153.161 97.4768 153.161 99.3581Z" fill="#FEFDFD"/>
<path d="M141.009 66.1044C148.37 66.1044 155.597 66.0779 162.797 66.1309C164.912 66.1574 166.277 67.7207 166.331 69.867C166.331 70.5824 166.331 71.2713 166.331 72.0927C165.902 72.1192 165.501 72.1457 165.126 72.1457C161.191 72.1457 157.283 72.1457 153.348 72.1457C151.689 72.1457 151.609 72.2252 151.609 73.868C151.609 81.8967 151.609 89.9253 151.609 97.9539C151.609 98.3779 151.609 98.8018 151.609 99.3052C148.022 99.3052 144.569 99.3052 141.009 99.3052C141.009 88.256 141.009 77.2597 141.009 66.1044Z" fill="white"/>
<path d="M126.313 83.5923C130.65 83.5923 134.959 83.5923 139.349 83.5923C139.349 86.295 139.349 88.9712 139.349 91.7269C135.013 91.7269 130.73 91.7269 126.313 91.7269C126.313 89.0507 126.313 86.348 126.313 83.5923Z" fill="white"/>
<path d="M126.287 81.8966C126.287 79.1409 126.287 76.4647 126.287 73.7355C130.677 73.7355 134.986 73.7355 139.376 73.7355C139.376 76.4647 139.376 79.1409 139.376 81.8966C135.013 81.8966 130.73 81.8966 126.287 81.8966Z" fill="white"/>
<path d="M153.269 73.7355C157.632 73.7355 161.888 73.7355 166.251 73.7355C166.251 76.4382 166.251 79.1144 166.251 81.8966C161.968 81.8966 157.632 81.8966 153.269 81.8966C153.269 79.1409 153.269 76.4647 153.269 73.7355Z" fill="white"/>
<path d="M153.241 83.5658C157.604 83.5658 161.86 83.5658 166.223 83.5658C166.223 86.2685 166.223 88.9712 166.223 91.7269C161.887 91.7269 157.604 91.7269 153.241 91.7269C153.241 89.0507 153.241 86.3745 153.241 83.5658Z" fill="white"/>
<path d="M139.376 66.1841C139.376 68.1714 139.376 70.0792 139.376 72.0929C135.013 72.0929 130.703 72.0929 126.421 72.0929C125.484 68.1714 127.464 65.8396 131.105 66.0781C133.728 66.2106 136.351 66.1046 138.974 66.1046C139.055 66.1046 139.162 66.1311 139.376 66.1841Z" fill="white"/>
<path d="M139.376 93.4227C139.376 95.357 139.376 97.2383 139.376 99.3051C138.84 99.3316 138.278 99.3846 137.716 99.3846C135.36 99.3846 133.005 99.3846 130.649 99.3846C127.705 99.4111 126.206 97.9537 126.206 95.0655C126.206 94.5356 126.206 94.0322 126.206 93.4227C130.649 93.4227 134.986 93.4227 139.376 93.4227Z" fill="white"/>
<path d="M153.161 99.3581C153.161 97.4768 153.161 95.8075 153.161 94.1381C153.161 93.9262 153.188 93.7142 153.188 93.4227C157.551 93.4227 161.86 93.4227 166.277 93.4227C166.277 94.4826 166.384 95.5425 166.25 96.5759C166.063 97.9802 164.644 99.2786 163.038 99.3316C159.826 99.4376 156.561 99.3581 153.161 99.3581Z" fill="white"/>
</g>
<path d="M130.178 156.754V157.668L128.875 157.61L129.633 158.651L128.816 159.135L128.171 157.966L127.525 159.135L126.724 158.651L127.471 157.61L126.18 157.668V156.754L127.471 156.823L126.724 155.766L127.525 155.282L128.171 156.451L128.816 155.282L129.633 155.766L128.875 156.823L130.178 156.754Z" fill="white"/>
<path d="M136.897 156.754V157.668L135.595 157.61L136.353 158.651L135.536 159.135L134.89 157.966L134.244 159.135L133.444 158.651L134.191 157.61L132.899 157.668V156.754L134.191 156.823L133.444 155.766L134.244 155.282L134.89 156.451L135.536 155.282L136.353 155.766L135.595 156.823L136.897 156.754Z" fill="white"/>
<path d="M143.618 156.754V157.668L142.316 157.61L143.074 158.651L142.257 159.135L141.611 157.966L140.965 159.135L140.165 158.651L140.912 157.61L139.62 157.668V156.754L140.912 156.823L140.165 155.766L140.965 155.282L141.611 156.451L142.257 155.282L143.074 155.766L142.316 156.823L143.618 156.754Z" fill="white"/>
<path d="M150.338 156.754V157.668L149.035 157.61L149.793 158.651L148.977 159.135L148.331 157.966L147.685 159.135L146.884 158.651L147.632 157.61L146.34 157.668V156.754L147.632 156.823L146.884 155.766L147.685 155.282L148.331 156.451L148.977 155.282L149.793 155.766L149.035 156.823L150.338 156.754Z" fill="white"/>
<path d="M161.718 156.754V157.668L160.415 157.61L161.173 158.651L160.356 159.135L159.711 157.966L159.065 159.135L158.264 158.651L159.011 157.61L157.72 157.668V156.754L159.011 156.823L158.264 155.766L159.065 155.282L159.711 156.451L160.356 155.282L161.173 155.766L160.415 156.823L161.718 156.754Z" fill="white"/>
<path d="M168.437 156.754V157.668L167.135 157.61L167.893 158.651L167.076 159.135L166.43 157.966L165.785 159.135L164.984 158.651L165.731 157.61L164.439 157.668V156.754L165.731 156.823L164.984 155.766L165.785 155.282L166.43 156.451L167.076 155.282L167.893 155.766L167.135 156.823L168.437 156.754Z" fill="white"/>
<path d="M175.163 156.754V157.668L173.861 157.61L174.618 158.651L173.802 159.135L173.156 157.966L172.51 159.135L171.709 158.651L172.457 157.61L171.165 157.668V156.754L172.457 156.823L171.709 155.766L172.51 155.282L173.156 156.451L173.802 155.282L174.618 155.766L173.861 156.823L175.163 156.754Z" fill="white"/>
<path d="M181.883 156.754V157.668L180.58 157.61L181.338 158.651L180.522 159.135L179.876 157.966L179.23 159.135L178.429 158.651L179.176 157.61L177.885 157.668V156.754L179.176 156.823L178.429 155.766L179.23 155.282L179.876 156.451L180.522 155.282L181.338 155.766L180.58 156.823L181.883 156.754Z" fill="white"/>
<path d="M193.262 156.754V157.668L191.96 157.61L192.718 158.651L191.901 159.135L191.256 157.966L190.61 159.135L189.809 158.651L190.556 157.61L189.265 157.668V156.754L190.556 156.823L189.809 155.766L190.61 155.282L191.256 156.451L191.901 155.282L192.718 155.766L191.96 156.823L193.262 156.754Z" fill="white"/>
<path d="M199.982 156.754V157.668L198.68 157.61L199.438 158.651L198.621 159.135L197.975 157.966L197.329 159.135L196.529 158.651L197.276 157.61L195.984 157.668V156.754L197.276 156.823L196.529 155.766L197.329 155.282L197.975 156.451L198.621 155.282L199.438 155.766L198.68 156.823L199.982 156.754Z" fill="white"/>
<path d="M206.703 156.754V157.668L205.401 157.61L206.158 158.651L205.342 159.135L204.696 157.966L204.05 159.135L203.25 158.651L203.997 157.61L202.705 157.668V156.754L203.997 156.823L203.25 155.766L204.05 155.282L204.696 156.451L205.342 155.282L206.158 155.766L205.401 156.823L206.703 156.754Z" fill="white"/>
<path d="M213.423 156.754V157.668L212.12 157.61L212.878 158.651L212.062 159.135L211.416 157.966L210.77 159.135L209.969 158.651L210.717 157.61L209.425 157.668V156.754L210.717 156.823L209.969 155.766L210.77 155.282L211.416 156.451L212.062 155.282L212.878 155.766L212.12 156.823L213.423 156.754Z" fill="white"/>
<path d="M220.489 165.458V164.374L224.028 160.777C224.973 159.836 225.448 159.028 225.448 158.354C225.448 157.79 225.277 157.355 224.93 157.041C224.589 156.728 224.167 156.568 223.67 156.568C222.726 156.568 222.037 157.014 221.605 157.907L220.489 157.254C220.804 156.605 221.242 156.116 221.802 155.782C222.363 155.447 222.982 155.282 223.66 155.282C224.498 155.282 225.229 155.558 225.854 156.111C226.473 156.664 226.788 157.402 226.788 158.338C226.788 159.347 226.19 160.447 225 161.638L222.443 164.178H226.98V165.464H220.489V165.458Z" fill="white"/>
<path d="M232.979 159.56C233.742 159.703 234.372 160.033 234.858 160.548C235.344 161.064 235.589 161.712 235.589 162.504C235.589 163.476 235.253 164.241 234.586 164.799C233.918 165.363 233.107 165.639 232.152 165.639C231.388 165.639 230.711 165.464 230.118 165.118C229.526 164.773 229.104 164.268 228.858 163.614L229.974 162.961C230.268 163.885 230.999 164.342 232.152 164.342C232.771 164.342 233.278 164.183 233.673 163.859C234.063 163.535 234.26 163.083 234.26 162.504C234.26 161.925 234.063 161.468 233.673 161.143C233.283 160.814 232.776 160.649 232.152 160.649H231.81L231.282 159.836L233.604 156.711H229.147V155.468H235.167L235.162 156.632L232.979 159.56Z" fill="white"/>
<path d="M245.496 162.318V163.556H244.279V165.453H242.944V163.556H237.831V162.318L241.429 155.468H242.859L239.262 162.318H242.944V159.491H244.279V162.318H245.496Z" fill="white"/>
<path d="M250.738 159.363C251.682 159.363 252.483 159.639 253.14 160.197C253.796 160.755 254.122 161.521 254.122 162.504C254.122 163.476 253.785 164.241 253.118 164.799C252.451 165.363 251.64 165.639 250.684 165.639C249.921 165.639 249.238 165.458 248.635 165.092C248.032 164.725 247.61 164.194 247.375 163.503L248.507 162.86C248.64 163.343 248.896 163.715 249.281 163.965C249.665 164.215 250.129 164.342 250.684 164.342C251.314 164.342 251.827 164.183 252.216 163.859C252.606 163.535 252.803 163.083 252.803 162.504C252.803 161.925 252.606 161.468 252.216 161.143C251.827 160.814 251.325 160.649 250.711 160.649H247.877L248.234 155.468H253.737V156.711H249.451L249.275 159.363H250.738Z" fill="white"/>
</g>
<g filter="url(#filter1_d_8577_5488)">
<rect x="433" y="51" width="202" height="126" rx="24" fill="url(#paint2_linear_8577_5488)"/>
<g opacity="0.7" clip-path="url(#clip3_8577_5488)">
<path d="M459.475 80.473C459.475 88.2632 459.475 95.9791 459.475 103.714C461.936 103.714 464.36 103.714 466.858 103.714C466.858 103.361 466.858 103.064 466.858 102.768C466.858 97.1476 466.858 91.5276 466.858 85.9076C466.858 84.7761 466.914 84.7205 468.07 84.702C470.811 84.702 473.533 84.702 476.274 84.702C476.535 84.702 476.814 84.6834 477.113 84.6649C477.113 84.0899 477.113 83.6076 477.113 83.1068C477.094 81.623 476.124 80.5101 474.651 80.4916C469.636 80.4545 464.602 80.473 459.475 80.473Z" fill="#FEFDFD"/>
<path d="M449.238 92.7146C449.238 94.6436 449.238 96.5355 449.238 98.4088C452.315 98.4088 455.298 98.4088 458.318 98.4088C458.318 96.4798 458.318 94.6065 458.318 92.7146C455.279 92.7146 452.277 92.7146 449.238 92.7146Z" fill="#FEFDFD"/>
<path d="M449.22 91.5276C452.315 91.5276 455.298 91.5276 458.337 91.5276C458.337 89.5986 458.337 87.7253 458.337 85.8148C455.279 85.8148 452.277 85.8148 449.22 85.8148C449.22 87.7438 449.22 89.5986 449.22 91.5276Z" fill="#FEFDFD"/>
<path d="M468.014 85.8148C468.014 87.7253 468.014 89.6172 468.014 91.5276C471.053 91.5276 474.073 91.5276 477.056 91.5276C477.056 89.5801 477.056 87.7253 477.056 85.8148C474.017 85.8148 471.053 85.8148 468.014 85.8148Z" fill="#FEFDFD"/>
<path d="M467.995 92.6962C467.995 94.6623 467.995 96.5356 467.995 98.4089C471.034 98.4089 474.036 98.4089 477.038 98.4089C477.038 96.48 477.038 94.5881 477.038 92.6962C474.017 92.6962 471.053 92.6962 467.995 92.6962Z" fill="#FEFDFD"/>
<path d="M458.337 80.5289C458.188 80.4918 458.114 80.4732 458.058 80.4732C456.231 80.4732 454.403 80.566 452.576 80.4547C450.04 80.2877 448.661 81.92 449.313 84.6465C452.296 84.6465 455.298 84.6465 458.337 84.6465C458.337 83.2554 458.337 81.92 458.337 80.5289Z" fill="#FEFDFD"/>
<path d="M458.337 99.5959C455.28 99.5959 452.259 99.5959 449.164 99.5959C449.164 100.004 449.164 100.375 449.164 100.746C449.164 102.768 450.208 103.788 452.259 103.769C453.9 103.769 455.541 103.769 457.181 103.769C457.573 103.769 457.946 103.732 458.337 103.714C458.337 102.267 458.337 100.95 458.337 99.5959Z" fill="#FEFDFD"/>
<path d="M467.939 103.751C470.307 103.751 472.563 103.806 474.819 103.732C475.938 103.695 476.926 102.786 477.057 101.803C477.15 101.08 477.075 100.338 477.075 99.5959C473.999 99.5959 470.997 99.5959 467.958 99.5959C467.939 99.8 467.939 99.9484 467.939 100.097C467.939 101.265 467.939 102.434 467.939 103.751Z" fill="#FEFDFD"/>
<path d="M459.475 80.473C464.602 80.473 469.636 80.4545 474.651 80.4916C476.124 80.5101 477.075 81.6044 477.113 83.1068C477.113 83.6076 477.113 84.0899 477.113 84.6649C476.814 84.6834 476.535 84.702 476.274 84.702C473.533 84.702 470.811 84.702 468.07 84.702C466.914 84.702 466.858 84.7576 466.858 85.9076C466.858 91.5276 466.858 97.1476 466.858 102.768C466.858 103.064 466.858 103.361 466.858 103.714C464.36 103.714 461.954 103.714 459.475 103.714C459.475 95.9791 459.475 88.2817 459.475 80.473Z" fill="white"/>
<path d="M449.238 92.7146C452.259 92.7146 455.261 92.7146 458.318 92.7146C458.318 94.6065 458.318 96.4798 458.318 98.4088C455.298 98.4088 452.315 98.4088 449.238 98.4088C449.238 96.5355 449.238 94.6436 449.238 92.7146Z" fill="white"/>
<path d="M449.22 91.5276C449.22 89.5986 449.22 87.7253 449.22 85.8148C452.277 85.8148 455.279 85.8148 458.337 85.8148C458.337 87.7253 458.337 89.5986 458.337 91.5276C455.298 91.5276 452.315 91.5276 449.22 91.5276Z" fill="white"/>
<path d="M468.014 85.8148C471.053 85.8148 474.017 85.8148 477.056 85.8148C477.056 87.7067 477.056 89.5801 477.056 91.5276C474.073 91.5276 471.053 91.5276 468.014 91.5276C468.014 89.5986 468.014 87.7253 468.014 85.8148Z" fill="white"/>
<path d="M467.995 92.6962C471.034 92.6962 473.999 92.6962 477.038 92.6962C477.038 94.5881 477.038 96.48 477.038 98.4089C474.017 98.4089 471.034 98.4089 467.995 98.4089C467.995 96.5356 467.995 94.6623 467.995 92.6962Z" fill="white"/>
<path d="M458.337 80.5289C458.337 81.92 458.337 83.2554 458.337 84.6651C455.298 84.6651 452.296 84.6651 449.313 84.6651C448.661 81.92 450.04 80.2877 452.576 80.4547C454.403 80.5474 456.231 80.4732 458.058 80.4732C458.114 80.4732 458.188 80.4918 458.337 80.5289Z" fill="white"/>
<path d="M458.337 99.5959C458.337 100.95 458.337 102.267 458.337 103.714C457.964 103.732 457.573 103.769 457.181 103.769C455.541 103.769 453.9 103.769 452.259 103.769C450.208 103.788 449.164 102.768 449.164 100.746C449.164 100.375 449.164 100.023 449.164 99.5959C452.259 99.5959 455.28 99.5959 458.337 99.5959Z" fill="white"/>
<path d="M467.939 103.751C467.939 102.434 467.939 101.265 467.939 100.097C467.939 99.9484 467.958 99.8 467.958 99.5959C470.997 99.5959 473.999 99.5959 477.075 99.5959C477.075 100.338 477.15 101.08 477.057 101.803C476.926 102.786 475.938 103.695 474.819 103.732C472.582 103.806 470.307 103.751 467.939 103.751Z" fill="white"/>
</g>
<path d="M451.93 143.928V144.568L451.023 144.527L451.551 145.256L450.982 145.594L450.532 144.776L450.082 145.594L449.525 145.256L450.045 144.527L449.146 144.568V143.928L450.045 143.976L449.525 143.236L450.082 142.897L450.532 143.716L450.982 142.897L451.551 143.236L451.023 143.976L451.93 143.928Z" fill="white"/>
<path d="M456.611 143.928V144.568L455.704 144.527L456.232 145.256L455.663 145.594L455.213 144.776L454.763 145.594L454.205 145.256L454.726 144.527L453.826 144.568V143.928L454.726 143.976L454.205 143.236L454.763 142.897L455.213 143.716L455.663 142.897L456.232 143.236L455.704 143.976L456.611 143.928Z" fill="white"/>
<path d="M461.292 143.928V144.568L460.384 144.527L460.912 145.256L460.343 145.594L459.894 144.776L459.444 145.594L458.886 145.256L459.407 144.527L458.507 144.568V143.928L459.407 143.976L458.886 143.236L459.444 142.897L459.894 143.716L460.343 142.897L460.912 143.236L460.384 143.976L461.292 143.928Z" fill="white"/>
<path d="M465.973 143.928V144.568L465.066 144.527L465.594 145.256L465.025 145.594L464.575 144.776L464.125 145.594L463.568 145.256L464.088 144.527L463.188 144.568V143.928L464.088 143.976L463.568 143.236L464.125 142.897L464.575 143.716L465.025 142.897L465.594 143.236L465.066 143.976L465.973 143.928Z" fill="white"/>
<path d="M473.899 143.928V144.568L472.992 144.527L473.52 145.256L472.951 145.594L472.501 144.776L472.051 145.594L471.493 145.256L472.014 144.527L471.114 144.568V143.928L472.014 143.976L471.493 143.236L472.051 142.897L472.501 143.716L472.951 142.897L473.52 143.236L472.992 143.976L473.899 143.928Z" fill="white"/>
<path d="M478.581 143.928V144.568L477.673 144.527L478.201 145.256L477.633 145.594L477.183 144.776L476.733 145.594L476.175 145.256L476.696 144.527L475.796 144.568V143.928L476.696 143.976L476.175 143.236L476.733 142.897L477.183 143.716L477.633 142.897L478.201 143.236L477.673 143.976L478.581 143.928Z" fill="white"/>
<path d="M483.265 143.928V144.568L482.358 144.527L482.886 145.256L482.317 145.594L481.867 144.776L481.417 145.594L480.86 145.256L481.38 144.527L480.48 144.568V143.928L481.38 143.976L480.86 143.236L481.417 142.897L481.867 143.716L482.317 142.897L482.886 143.236L482.358 143.976L483.265 143.928Z" fill="white"/>
<path d="M487.946 143.928V144.568L487.039 144.527L487.567 145.256L486.998 145.594L486.548 144.776L486.098 145.594L485.54 145.256L486.061 144.527L485.161 144.568V143.928L486.061 143.976L485.54 143.236L486.098 142.897L486.548 143.716L486.998 142.897L487.567 143.236L487.039 143.976L487.946 143.928Z" fill="white"/>
<path d="M495.873 143.928V144.568L494.965 144.527L495.493 145.256L494.925 145.594L494.475 144.776L494.025 145.594L493.467 145.256L493.988 144.527L493.088 144.568V143.928L493.988 143.976L493.467 143.236L494.025 142.897L494.475 143.716L494.925 142.897L495.493 143.236L494.965 143.976L495.873 143.928Z" fill="white"/>
</g>
<defs>
<filter id="filter0_d_8577_5488" x="79" y="0" width="338" height="228" filterUnits="userSpaceOnUse" color-interpolation-filters="sRGB">
<feFlood flood-opacity="0" result="BackgroundImageFix"/>
<feColorMatrix in="SourceAlpha" type="matrix" values="0 0 0 0 0 0 0 0 0 0 0 0 0 0 0 0 0 0 127 0" result="hardAlpha"/>
<feOffset/>
<feGaussianBlur stdDeviation="12"/>
<feColorMatrix type="matrix" values="0 0 0 0 0.645833 0 0 0 0 0.645833 0 0 0 0 0.645833 0 0 0 0.35 0"/>
<feBlend mode="normal" in2="BackgroundImageFix" result="effect1_dropShadow_8577_5488"/>
<feBlend mode="normal" in="SourceGraphic" in2="effect1_dropShadow_8577_5488" result="shape"/>
</filter>
<filter id="filter1_d_8577_5488" x="409" y="27" width="250" height="174" filterUnits="userSpaceOnUse" color-interpolation-filters="sRGB">
<feFlood flood-opacity="0" result="BackgroundImageFix"/>
<feColorMatrix in="SourceAlpha" type="matrix" values="0 0 0 0 0 0 0 0 0 0 0 0 0 0 0 0 0 0 127 0" result="hardAlpha"/>
<feOffset/>
<feGaussianBlur stdDeviation="12"/>
<feColorMatrix type="matrix" values="0 0 0 0 0.645833 0 0 0 0 0.645833 0 0 0 0 0.645833 0 0 0 0.35 0"/>
<feBlend mode="normal" in2="BackgroundImageFix" result="effect1_dropShadow_8577_5488"/>
<feBlend mode="normal" in="SourceGraphic" in2="effect1_dropShadow_8577_5488" result="shape"/>
</filter>
<linearGradient id="paint0_linear_8577_5488" x1="326.749" y1="198.53" x2="20.2299" y2="-154.464" gradientUnits="userSpaceOnUse">
<stop stop-color="#02CAFD"/>
<stop offset="1" stop-color="#83F8A6"/>
</linearGradient>
<linearGradient id="paint1_linear_8577_5488" x1="174.083" y1="133.231" x2="414.332" y2="-56.5216" gradientUnits="userSpaceOnUse">
<stop stop-color="#50BEDE"/>
<stop offset="0.775" stop-color="#5DCCE5"/>
</linearGradient>
<linearGradient id="paint2_linear_8577_5488" x1="534.179" y1="24.6154" x2="419.42" y2="291.966" gradientUnits="userSpaceOnUse">
<stop stop-color="#23D3A4"/>
<stop offset="1" stop-color="#5B49CF"/>
</linearGradient>
<clipPath id="clip0_8577_5488">
<rect width="28.7034" height="22.2564" fill="white" transform="translate(23.5332 137.513)"/>
</clipPath>
<clipPath id="clip1_8577_5488">
<rect width="41.2078" height="31.7949" fill="white" transform="translate(336.339 147.59)"/>
</clipPath>
<clipPath id="clip2_8577_5488">
<rect width="40.1776" height="33.3333" fill="white" transform="translate(126.18 66.0513)"/>
</clipPath>
<clipPath id="clip3_8577_5488">
<rect width="27.9858" height="23.3333" fill="white" transform="translate(449.146 80.4359)"/>
</clipPath>
</defs>
</svg>
