<svg width="131" height="59" viewBox="0 0 131 59" fill="none" xmlns="http://www.w3.org/2000/svg">
<path d="M12.4915 36.5591H12.2142C10.6668 36.5591 9.2675 36.8379 8.02044 37.3956C6.77337 37.9533 5.72024 38.7337 4.85898 39.7346C4.82978 39.2477 4.75053 38.6983 4.62333 38.0823C4.51071 37.5475 4.39393 37.0939 4.27089 36.7193C4.23961 36.6215 4.14577 36.5591 4.04359 36.5591H0.239821C0.108441 36.5591 0 36.6652 0 36.7984V58.6338C0 58.7649 0.106355 58.8731 0.239821 58.8731H5.09254C5.22392 58.8731 5.33236 58.767 5.33236 58.6338V47.0283C5.33236 46.171 5.46791 45.3906 5.7411 44.6894C6.0122 43.9881 6.40008 43.395 6.90266 42.9081C7.40316 42.4211 8.02044 42.057 8.75241 41.8135C9.48439 41.57 10.3352 41.4493 11.3112 41.4493C11.5406 41.4493 11.7846 41.4639 12.0432 41.4909C12.1725 41.5055 12.2934 41.5305 12.4081 41.5658C12.5666 41.6158 12.7313 41.5076 12.7313 41.3411V36.7942C12.7313 36.6652 12.6229 36.5591 12.4915 36.5591Z" fill="#606D83"/>
<path d="M34.2861 38.7668C33.3393 37.8366 32.2132 37.1228 30.9098 36.6213C29.6044 36.1219 28.1926 35.8701 26.6744 35.8701H26.3741C24.7391 35.8701 23.2272 36.1635 21.8363 36.7504C20.4453 37.3372 19.2483 38.1321 18.2452 39.131C17.2421 40.1319 16.4393 41.3264 15.8366 42.7144C15.2339 44.1024 14.9336 45.5965 14.9336 47.1988V47.8855C14.9336 49.4879 15.2193 50.9757 15.7949 52.3492C16.3683 53.7226 17.1629 54.8962 18.1806 55.868C19.1982 56.8398 20.4098 57.6056 21.8133 58.1633C23.2168 58.721 24.7662 58.9999 26.4575 58.9999H26.8871C27.8047 58.9999 28.7222 58.8917 29.6398 58.6773C30.5574 58.463 31.4374 58.1841 32.2841 57.8408C33.1308 57.4974 33.9191 57.0688 34.6489 56.5527C35.3163 56.0824 35.9064 55.5642 36.4174 54.9982C36.5008 54.9066 36.4966 54.7651 36.4132 54.6757L33.7772 51.8185C33.6792 51.7124 33.5145 51.7186 33.4186 51.8268C32.7763 52.5656 31.9233 53.1878 30.8619 53.6997C29.7003 54.2574 28.4324 54.5362 27.056 54.5362H26.8412C25.9236 54.5362 25.0853 54.3926 24.3262 54.1076C23.5671 53.8225 22.8915 53.4417 22.3055 52.9714C21.7174 52.499 21.2586 51.9267 20.9291 51.2546C20.5996 50.5824 20.3765 49.8603 20.2618 49.0883H37.0096C37.141 49.0883 37.2494 48.9822 37.2494 48.849V46.1708C37.2494 44.6538 36.9908 43.2741 36.4757 42.0297C35.9627 40.7832 35.2308 39.6949 34.2861 38.7668ZM20.3953 45.482C20.5391 44.6517 20.7831 43.9026 21.1272 43.2284C21.4713 42.5562 21.9072 41.9839 22.4389 41.5116C22.9686 41.0392 23.5776 40.675 24.2657 40.417C24.9539 40.159 25.6692 40.0299 26.4158 40.0299H26.4596C27.2625 40.0299 28.007 40.1652 28.6951 40.4378C29.3833 40.7104 29.9714 41.0808 30.4594 41.5532C30.9474 42.0256 31.3478 42.5978 31.6627 43.27C31.9776 43.9421 32.1777 44.6788 32.2653 45.4799L20.3953 45.482Z" fill="#606D83"/>
<path d="M56.7753 45.4381V58.3296C56.7753 58.4607 56.8817 58.5689 57.0152 58.5689H61.8262C61.9575 58.5689 62.066 58.4628 62.066 58.3296V44.3228C62.066 41.7986 61.4779 39.8133 60.3038 38.3608C58.9504 39.7634 57.5761 41.168 56.2144 42.5581C56.5856 43.3114 56.7753 44.2666 56.7753 45.4381Z" fill="#606D83"/>
<path d="M54.1103 35.8265C52.5337 35.8265 51.0572 36.1199 49.6809 36.7067C48.3045 37.2936 47.1158 38.101 46.1107 39.131V27.9126C46.1107 27.7815 46.0043 27.6733 45.8709 27.6733H41.0181C40.8868 27.6733 40.7783 27.7795 40.7783 27.9126V58.332C40.7783 58.4631 40.8847 58.5713 41.0181 58.5713H45.8709C46.0022 58.5713 46.1107 58.4652 46.1107 58.332V46.1688C46.1107 45.3115 46.2462 44.5249 46.5194 43.809C46.7905 43.0932 47.193 42.4939 47.7227 42.0069C48.2524 41.52 48.8989 41.1412 49.6579 40.8707C50.417 40.6002 51.2408 40.4629 52.1312 40.4629C52.5587 40.4629 52.9529 40.4962 53.322 40.5586C54.5732 38.873 55.7994 37.2166 56.6127 36.1053C55.8537 35.9201 55.0216 35.8265 54.1103 35.8265Z" fill="#606D83"/>
<path d="M71.4583 36.2554H66.6055C66.4742 36.2554 66.3657 36.3615 66.3657 36.4947V58.3301C66.3657 58.4612 66.4721 58.5694 66.6055 58.5694H71.4583C71.5896 58.5694 71.6981 58.4633 71.6981 58.3301V36.4947C71.6981 36.3636 71.5896 36.2554 71.4583 36.2554Z" fill="#606D83"/>
<path d="M88.9613 36.2554H88.6839C87.1365 36.2554 85.7372 36.5342 84.4902 37.0919C83.2431 37.6496 82.19 38.43 81.3287 39.4309C81.2995 38.944 81.2203 38.3946 81.0931 37.7786C80.9804 37.2438 80.8637 36.7902 80.7406 36.4156C80.7093 36.3178 80.6155 36.2554 80.5133 36.2554H76.7095C76.5782 36.2554 76.4697 36.3615 76.4697 36.4947V58.3301C76.4697 58.4612 76.5761 58.5694 76.7095 58.5694H81.5623C81.6936 58.5694 81.8021 58.4633 81.8021 58.3301V46.7246C81.8021 45.8673 81.9376 45.0869 82.2108 44.3856C82.4819 43.6844 82.8698 43.0913 83.3724 42.6043C83.8729 42.1174 84.4902 41.7532 85.2221 41.5098C85.9541 41.2663 86.805 41.1456 87.7809 41.1456C88.0103 41.1456 88.2543 41.1602 88.5108 41.1872C88.6401 41.2018 88.7611 41.2268 88.8758 41.2621C89.0343 41.3121 89.199 41.2039 89.199 41.0374V36.4905C89.199 36.3636 89.0926 36.2554 88.9613 36.2554Z" fill="#606D83"/>
<path d="M112.466 42.0276C111.951 40.7832 111.219 39.697 110.272 38.7668C109.325 37.8366 108.201 37.1228 106.896 36.6213C105.59 36.1219 104.178 35.8701 102.66 35.8701H102.36C100.725 35.8701 99.2131 36.1635 97.8221 36.7504C96.4311 37.3372 95.2341 38.1321 94.231 39.131C93.228 40.1319 92.4251 41.3264 91.8224 42.7144C91.2197 44.1024 90.9194 45.5965 90.9194 47.1988V47.8855C90.9194 49.4879 91.2051 50.9757 91.7807 52.3492C92.3542 53.7226 93.1487 54.8962 94.1664 55.868C95.1841 56.8398 96.3957 57.6056 97.8012 58.1633C99.2047 58.721 100.754 58.9999 102.445 58.9999H102.875C103.793 58.9999 104.71 58.8917 105.628 58.6773C106.545 58.463 107.427 58.1841 108.272 57.8408C109.117 57.4974 109.907 57.0688 110.637 56.5527C111.304 56.0824 111.894 55.5642 112.405 54.9982C112.489 54.9066 112.485 54.7651 112.401 54.6757L109.765 51.8185C109.667 51.7124 109.502 51.7186 109.406 51.8268C108.764 52.5656 107.911 53.1878 106.85 53.6997C105.688 54.2574 104.42 54.5362 103.044 54.5362H102.829C101.912 54.5362 101.073 54.3926 100.314 54.1076C99.5551 53.8225 98.8794 53.4417 98.2934 52.9714C97.7053 52.499 97.2465 51.9267 96.917 51.2546C96.5875 50.5824 96.3644 49.8603 96.2497 49.0883H112.998C113.129 49.0883 113.237 48.9822 113.237 48.849V46.1708C113.239 44.6517 112.981 43.2721 112.466 42.0276ZM96.3811 45.482C96.525 44.6517 96.769 43.9026 97.1131 43.2284C97.4572 42.5562 97.893 41.9839 98.4248 41.5116C98.9545 41.0392 99.5634 40.675 100.252 40.417C100.94 40.159 101.655 40.0299 102.402 40.0299H102.445C103.248 40.0299 103.993 40.1652 104.681 40.4378C105.369 40.7104 105.955 41.0808 106.443 41.5532C106.931 42.0256 107.332 42.5978 107.646 43.27C107.961 43.9421 108.161 44.6788 108.249 45.4799L96.3811 45.482Z" fill="#606D83"/>
<path d="M85.4346 27.2342C84.4712 27.0948 78.8906 26.4227 76.1275 25.8546C75.1223 25.6132 74.3737 25.0305 74.1297 23.9109C74.0171 23.3928 74.0629 22.8746 74.1776 22.3627C74.4341 21.2182 74.9618 20.2048 75.6291 19.2767C76.6864 17.8075 82.1293 10.5221 83.7642 8.32463C83.9081 8.09572 83.8163 8.06867 83.7684 8.02705C83.7475 8.00832 83.7183 8 83.6871 8C83.5327 8 83.2846 8.18729 83.172 8.30382C80.1127 11.4273 77.0451 14.5383 74.0004 17.6764C72.3946 19.3329 70.7075 20.8769 68.8057 22.1609C65.4732 24.4083 61.8717 25.5632 57.8969 26.2083C54.8439 26.7036 50.7565 27.0095 49.2175 27.1864C48.7566 27.2384 48.0643 27.2009 48.0268 27.6317C48.0122 27.8106 48.1832 27.8876 48.2874 27.9022C49.2509 28.0437 50.2143 28.179 51.1778 28.3163C52.6042 28.5202 56.8772 29.1133 57.5716 29.284C58.5455 29.5212 59.2858 30.0851 59.5507 31.1631C59.6716 31.6604 59.6466 32.164 59.5486 32.6634C59.34 33.733 58.8917 34.7027 58.2807 35.5705C58.1472 35.7599 57.9324 36.0574 57.6592 36.4341C56.898 37.4787 55.6697 39.1373 54.3914 40.8603C52.6584 43.1951 50.8358 45.6423 49.9662 46.8076C49.9349 46.8493 49.7681 47.0636 49.8661 47.1364C49.9078 47.1676 49.9495 47.1843 49.9954 47.1843C50.1205 47.1843 50.2811 47.0698 50.5668 46.8201C52.2455 45.1054 53.9305 43.3949 55.6113 41.6802C56.9377 40.3255 58.264 38.9708 59.5799 37.6057C59.6153 37.5703 59.6508 37.5328 59.6862 37.4975C61.5589 35.558 63.5588 33.8038 65.8256 32.3846C68.9621 30.4202 72.307 29.2631 75.9878 28.9177C77.4517 28.7804 84.4733 27.9542 85.1281 27.8668C85.2782 27.846 85.6724 27.7898 85.7537 27.5214C85.8308 27.28 85.4868 27.2425 85.4346 27.2342Z" fill="#238CAA"/>
</svg>
