<svg width="81" height="30" viewBox="0 0 81 30" fill="none" xmlns="http://www.w3.org/2000/svg">
<path d="M47.9502 18.3105C47.5531 21.024 45.4241 23.1815 42.7326 23.593C39.9638 23.9934 40.3278 26.2732 41.2765 27.1629C42.3685 28.186 43.8577 28.7866 45.4683 28.7866C48.932 28.7866 51.7339 25.9507 51.7339 22.4698C51.7339 20.6682 50.9948 19.0556 49.7924 17.899C49.7042 17.8323 49.638 17.7656 49.5497 17.7099C49.3732 17.5876 49.1967 17.5098 48.9651 17.5098C48.5239 17.5098 48.0275 17.7099 47.9502 18.3105Z" stroke="#606D83"/>
<path d="M38.5225 23.3536C38.5225 25.1417 39.2698 26.7611 40.4634 27.9194C40.5526 27.9869 40.6196 28.0543 40.7088 28.1106C40.8761 28.223 41.0658 28.3018 41.2889 28.3018C41.735 28.3018 42.2259 28.0993 42.3039 27.5033C42.7055 24.793 44.8249 22.6338 47.5244 22.229C50.2908 21.8241 49.9338 19.5412 48.9857 18.6528C47.8814 17.6294 46.3978 17.0334 44.7915 17.0334C41.3335 17.0334 38.5225 19.8561 38.5225 23.3536Z" fill="url(#paint0_linear_8543_6687)"/>
<path d="M38.5225 23.3536C38.5225 25.1417 39.2698 26.7611 40.4634 27.9194C40.5526 27.9869 40.6196 28.0543 40.7088 28.1106C40.8761 28.223 41.0658 28.3018 41.2889 28.3018C41.735 28.3018 42.2259 28.0993 42.3039 27.5033C42.7055 24.793 44.8249 22.6338 47.5244 22.229C50.2908 21.8241 49.9338 19.5412 48.9857 18.6528C47.8814 17.6294 46.3978 17.0334 44.7915 17.0334C41.3335 17.0334 38.5225 19.8561 38.5225 23.3536Z" fill="#606D83"/>
<path d="M2.43194 19.268C2.10757 19.268 1.80735 19.2802 1.53193 19.3047V22.0507H2.20095C2.57364 22.0507 2.9019 22.0305 3.18572 21.9896C3.46955 21.9488 3.70658 21.8753 3.89723 21.7687C4.08746 21.6628 4.23153 21.5195 4.32879 21.3397C4.42606 21.1601 4.47481 20.9312 4.47481 20.6533C4.47481 20.3917 4.42606 20.1712 4.32879 19.9912C4.23153 19.8116 4.09155 19.6685 3.90931 19.5622C3.72685 19.4561 3.50988 19.3804 3.25862 19.3354C3.00736 19.2906 2.73173 19.268 2.43194 19.268ZM2.32238 17.9316C3.53835 17.9316 4.46855 18.1567 5.1132 18.6061C5.75764 19.0556 6.07985 19.742 6.07985 20.6655C6.07985 21.8179 5.5163 22.5985 4.38962 23.007C4.54339 23.1951 4.71809 23.4238 4.91241 23.6937C5.10695 23.9633 5.30558 24.2555 5.50832 24.5699C5.71083 24.8848 5.90537 25.2075 6.09193 25.5384C6.27827 25.8695 6.44456 26.1944 6.59057 26.5132H4.87596C4.72175 26.219 4.55568 25.9228 4.37754 25.6243C4.19896 25.3262 4.01866 25.0359 3.83641 24.7539C3.65395 24.4721 3.47343 24.2064 3.29528 23.957C3.11692 23.7078 2.95042 23.4852 2.79665 23.289C2.68299 23.2973 2.58572 23.3012 2.50484 23.3012H2.27385H1.53193V26.5132H0V18.1402C0.372685 18.0586 0.769957 18.0034 1.1916 17.9747C1.61303 17.946 1.98981 17.9316 2.32238 17.9316Z" fill="#606D83"/>
<path d="M9.94658 25.4706C10.4006 25.4706 10.745 25.4461 10.9803 25.3971V23.7544C10.8992 23.7298 10.7814 23.7053 10.6277 23.6809C10.4735 23.6563 10.3033 23.6442 10.117 23.6442C9.95455 23.6442 9.79043 23.6563 9.62457 23.6809C9.45807 23.7053 9.30818 23.7503 9.17446 23.8157C9.04074 23.8812 8.93334 23.9731 8.85224 24.0914C8.77115 24.2101 8.73061 24.3593 8.73061 24.5389C8.73061 24.8905 8.84017 25.1336 9.05908 25.2684C9.27777 25.4032 9.57367 25.4706 9.94658 25.4706ZM9.82515 19.9419C10.3113 19.9419 10.7208 20.003 11.0532 20.1256C11.3856 20.2483 11.6508 20.4198 11.8497 20.6405C12.0481 20.8612 12.19 21.1291 12.2752 21.4435C12.3604 21.7583 12.4031 22.1036 12.4031 22.4794V26.3656C12.176 26.4145 11.8333 26.4741 11.3754 26.5434C10.9173 26.6126 10.4006 26.6476 9.82515 26.6476C9.44405 26.6476 9.09553 26.6109 8.77935 26.5371C8.46317 26.4636 8.19358 26.3451 7.97079 26.1816C7.74778 26.0183 7.5733 25.8059 7.44778 25.5441C7.32204 25.2828 7.25928 24.9599 7.25928 24.5757C7.25928 24.208 7.33023 23.8975 7.47215 23.6442C7.61406 23.3909 7.80644 23.1843 8.04972 23.0249C8.293 22.8657 8.57467 22.7512 8.89495 22.6816C9.21501 22.6122 9.5493 22.5774 9.89805 22.5774C10.06 22.5774 10.2302 22.5879 10.4088 22.6081C10.5871 22.6287 10.7776 22.6633 10.9803 22.7122V22.4672C10.9803 22.2954 10.9598 22.1321 10.9195 21.9769C10.8787 21.8216 10.808 21.6846 10.7066 21.5661C10.6052 21.4479 10.4715 21.3559 10.3055 21.2902C10.1392 21.225 9.9304 21.1921 9.67914 21.1921C9.33881 21.1921 9.02651 21.2167 8.7429 21.2659C8.45907 21.3148 8.22787 21.372 8.04972 21.4374L7.86726 20.2361C8.05382 20.1706 8.32514 20.1054 8.68208 20.0397C9.03859 19.9745 9.41968 19.9419 9.82515 19.9419Z" fill="#606D83"/>
<path d="M18.6535 21.1435C18.4913 21.3153 18.2784 21.5562 18.0151 21.8669C17.7515 22.1774 17.4699 22.5227 17.1699 22.9028C16.8697 23.2826 16.5679 23.6792 16.2638 24.0919C15.9599 24.5046 15.6862 24.8991 15.443 25.2748H18.7264V26.5131H13.668V25.5935C13.8461 25.2667 14.0691 24.9112 14.3368 24.527C14.6044 24.143 14.8798 23.7569 15.1635 23.3685C15.4473 22.9804 15.729 22.6108 16.0087 22.2592C16.2884 21.9078 16.5375 21.6012 16.7566 21.3396H13.8261V20.1016H18.6535V21.1435Z" fill="#606D83"/>
<path d="M23.7965 22.6757C23.7965 22.4715 23.7678 22.2771 23.7113 22.0934C23.6546 21.9095 23.5716 21.7501 23.462 21.6153C23.3524 21.4805 23.2187 21.3744 23.0608 21.2965C22.9025 21.2189 22.714 21.1802 22.4953 21.1802C22.2682 21.1802 22.0698 21.223 21.8994 21.3087C21.7293 21.3946 21.5852 21.507 21.4679 21.6459C21.3501 21.7849 21.2589 21.9443 21.1944 22.1241C21.1293 22.3039 21.0848 22.4878 21.0605 22.6757H23.7965ZM19.5283 23.3376C19.5283 22.7738 19.6114 22.2793 19.7776 21.8542C19.9437 21.4296 20.1646 21.0758 20.4402 20.794C20.7158 20.512 21.032 20.2996 21.3887 20.1565C21.7454 20.0134 22.1104 19.9419 22.4831 19.9419C23.3587 19.9419 24.0415 20.2159 24.5322 20.7634C25.0226 21.3109 25.2676 22.1282 25.2676 23.2149C25.2676 23.2969 25.2657 23.3889 25.2618 23.4909C25.2575 23.5933 25.2514 23.6853 25.2435 23.7668H21.0484C21.0887 24.2817 21.269 24.68 21.5895 24.962C21.9096 25.2441 22.3737 25.385 22.9819 25.385C23.3384 25.385 23.6647 25.3523 23.9606 25.2869C24.2565 25.2214 24.4897 25.1521 24.6599 25.0784L24.8544 26.2921C24.7731 26.3332 24.6618 26.376 24.5199 26.4208C24.378 26.4658 24.216 26.5067 24.0337 26.5434C23.8513 26.5802 23.6546 26.6109 23.4437 26.6354C23.233 26.66 23.0184 26.6722 22.7994 26.6722C22.24 26.6722 21.7534 26.5882 21.3402 26.4208C20.9268 26.2534 20.5862 26.0205 20.3188 25.722C20.0513 25.4239 19.8525 25.0723 19.7229 24.6679C19.5932 24.2632 19.5283 23.8201 19.5283 23.3376Z" fill="#606D83"/>
<path d="M30.448 23.142C30.448 22.4719 30.3647 21.9876 30.1989 21.6893C30.0324 21.391 29.7224 21.2418 29.2685 21.2418C29.1063 21.2418 28.9279 21.254 28.7336 21.2786C28.5388 21.3029 28.393 21.3236 28.2958 21.3399V26.5131H26.8242V20.3101C27.108 20.2286 27.4788 20.1507 27.9369 20.0773C28.3948 20.0035 28.8794 19.9668 29.3901 19.9668C29.8279 19.9668 30.1866 20.0242 30.4663 20.1386C30.746 20.2529 30.979 20.4041 31.1653 20.5919C31.2544 20.5267 31.368 20.4571 31.5059 20.3836C31.6437 20.3101 31.7979 20.2427 31.968 20.1814C32.1382 20.1201 32.3185 20.0692 32.5092 20.0281C32.6994 19.9875 32.8922 19.9668 33.0865 19.9668C33.5811 19.9668 33.9885 20.0386 34.3088 20.1814C34.629 20.3245 34.8803 20.5245 35.0625 20.782C35.245 21.0396 35.3705 21.3501 35.4397 21.7139C35.5083 22.0774 35.5428 22.476 35.5428 22.9091V26.5131H34.0717V23.142C34.0717 22.4719 33.9906 21.9876 33.8284 21.6893C33.6663 21.391 33.3542 21.2418 32.8922 21.2418C32.6569 21.2418 32.4341 21.2805 32.2232 21.3582C32.0125 21.436 31.8544 21.5115 31.7491 21.5849C31.8138 21.7893 31.8585 22.0061 31.8829 22.2349C31.9072 22.4636 31.9193 22.7089 31.9193 22.9702V26.5131H30.448V23.142Z" fill="#606D83"/>
<path d="M58.9464 20.1748C59.0191 20.5834 59.114 21.0185 59.2311 21.4801C59.348 21.9417 59.4772 22.4116 59.6185 22.8895C59.7597 23.3674 59.9096 23.8395 60.0679 24.3054C60.2267 24.7716 60.3874 25.2091 60.55 25.6179C60.6882 25.3076 60.8345 24.9301 60.9893 24.485C61.1437 24.0402 61.2981 23.5707 61.453 23.0767C61.6076 22.5829 61.7519 22.0841 61.8861 21.5805C62.02 21.0772 62.1319 20.6088 62.2214 20.1748H63C62.7074 21.4198 62.3884 22.5566 62.0424 23.5855C61.6967 24.6144 61.3161 25.59 60.9011 26.5128H60.1684C60.0455 26.2241 59.9165 25.902 59.782 25.547C59.647 25.1919 59.5081 24.812 59.3653 24.4078C59.2223 24.0036 59.084 23.5792 58.9505 23.1343C58.8166 22.6892 58.6894 22.2339 58.5679 21.7686C58.4467 22.2352 58.3195 22.6914 58.1864 23.1374C58.0531 23.5835 57.9155 24.0086 57.7734 24.4131C57.6308 24.8177 57.4928 25.1976 57.3589 25.5528C57.2247 25.9086 57.097 26.2284 56.976 26.5128H56.216C55.8004 25.5898 55.4204 24.6135 55.0762 23.5838C54.7315 22.5538 54.414 21.4177 54.1235 20.1748H54.9623C55.0518 20.6079 55.1639 21.0756 55.2981 21.5781C55.4325 22.0806 55.5772 22.579 55.7318 23.0732C55.8865 23.5674 56.043 24.0354 56.2013 24.477C56.3599 24.9188 56.5082 25.295 56.6467 25.6057C56.802 25.1986 56.9573 24.762 57.1134 24.2954C57.2694 23.8288 57.4156 23.3585 57.553 22.884C57.6899 22.4098 57.8187 21.9419 57.9397 21.4799C58.0607 21.0178 58.1692 20.5827 58.2653 20.1748H58.9464Z" fill="#606D83"/>
<path d="M68.8366 23.35C68.8366 22.5575 68.6541 21.926 68.2894 21.4562C67.9245 20.9861 67.4302 20.751 66.8058 20.751C66.1814 20.751 65.6871 20.9861 65.3224 21.4562C64.9577 21.926 64.7752 22.5575 64.7752 23.35C64.7752 24.1428 64.9577 24.7723 65.3224 25.238C65.6871 25.7038 66.1814 25.9366 66.8058 25.9366C67.4302 25.9366 67.9245 25.7038 68.2894 25.238C68.6541 24.7723 68.8366 24.1428 68.8366 23.35ZM69.6758 23.35C69.6758 23.8486 69.6046 24.3022 69.4627 24.7107C69.3208 25.1195 69.1224 25.4668 68.867 25.7529C68.6116 26.039 68.3097 26.2617 67.9609 26.4211C67.6124 26.5802 67.2272 26.66 66.8058 26.66C66.3844 26.66 65.9992 26.5802 65.6509 26.4211C65.3019 26.2617 65.0002 26.039 64.7448 25.7529C64.4895 25.4668 64.2908 25.1195 64.1491 24.7107C64.007 24.3022 63.936 23.8486 63.936 23.35C63.936 22.8517 64.007 22.3981 64.1491 21.9893C64.2908 21.5808 64.4895 21.2313 64.7448 20.9411C65.0002 20.6512 65.3019 20.4264 65.6509 20.2668C65.9992 20.1074 66.3844 20.0278 66.8058 20.0278C67.2272 20.0278 67.6124 20.1074 67.9609 20.2668C68.3097 20.4264 68.6116 20.6512 68.867 20.9411C69.1224 21.2313 69.3208 21.5808 69.4627 21.9893C69.6046 22.3981 69.6758 22.8517 69.6758 23.35Z" fill="#606D83"/>
<path d="M73.5303 20.0522C73.7897 20.0522 74.0349 20.0727 74.2659 20.1136C74.4969 20.1544 74.6572 20.1953 74.7465 20.2362L74.5882 20.9226C74.5232 20.89 74.3915 20.8552 74.193 20.8183C73.9942 20.7815 73.7328 20.7633 73.4088 20.7633C73.0681 20.7633 72.7946 20.7878 72.588 20.8368C72.3812 20.8859 72.2453 20.9268 72.1806 20.9594V26.5127H71.3901V20.4691C71.5929 20.3793 71.8724 20.2873 72.2293 20.1931C72.5858 20.0994 73.0196 20.0522 73.5303 20.0522Z" fill="#606D83"/>
<path d="M77.5177 23.0621C77.8043 23.2656 78.0938 23.5004 78.3853 23.7668C78.6774 24.0334 78.9653 24.3221 79.2487 24.6331C79.5323 24.9438 79.7997 25.2628 80.0504 25.59C80.3012 25.917 80.5147 26.2247 80.6915 26.513H79.7417C79.5515 26.1908 79.3304 25.8751 79.0794 25.565C78.8281 25.2554 78.5646 24.9636 78.2885 24.69C78.0127 24.4165 77.7368 24.1669 77.4608 23.9416C77.1849 23.7164 76.9403 23.547 76.7275 23.4341V26.513H75.937V17.147L76.7275 17V22.9051C76.8965 22.759 77.1073 22.5598 77.3596 22.3076C77.6119 22.0556 77.869 21.8018 78.1309 21.5466C78.3929 21.2913 78.6398 21.0443 78.8726 20.8051C79.1051 20.5659 79.3007 20.3559 79.4581 20.175H80.4241C80.2378 20.3716 80.0243 20.5894 79.7833 20.8286C79.5424 21.0682 79.2914 21.3176 79.0302 21.577C78.769 21.8366 78.5115 22.0921 78.2587 22.3437C78.0055 22.595 77.7584 22.8347 77.5177 23.0621Z" fill="#606D83"/>
<path d="M1.312 12.52C1.47733 12.568 1.64533 12.592 1.816 12.592C2.14667 12.592 2.44 12.528 2.696 12.4C2.952 12.2667 3.168 12.096 3.344 11.888C3.52 11.6747 3.65333 11.4373 3.744 11.176C3.83467 10.9093 3.88 10.64 3.88 10.368C3.88 9.968 3.792 9.67733 3.616 9.496C3.44 9.30933 3.176 9.216 2.824 9.216C2.70133 9.216 2.576 9.22667 2.448 9.248C2.32533 9.26933 2.19733 9.29867 2.064 9.336L1.312 12.52ZM1.616 9.032C1.84 8.952 2.064 8.888 2.288 8.84C2.512 8.792 2.73333 8.768 2.952 8.768C3.92267 8.768 4.408 9.27467 4.408 10.288C4.408 10.6453 4.34933 10.992 4.232 11.328C4.11467 11.664 3.94133 11.9627 3.712 12.224C3.488 12.48 3.21067 12.6853 2.88 12.84C2.55467 12.9947 2.18133 13.072 1.76 13.072C1.552 13.072 1.36 13.048 1.184 13L0.832 14.48H0.304L1.616 9.032ZM5.46044 11.672C5.46044 11.9867 5.54844 12.224 5.72444 12.384C5.90044 12.544 6.1111 12.624 6.35644 12.624C6.54844 12.624 6.74577 12.576 6.94844 12.48C7.1511 12.3787 7.3351 12.2293 7.50044 12.032C7.6711 11.8293 7.80977 11.576 7.91644 11.272C8.02844 10.968 8.08444 10.6107 8.08444 10.2C8.08444 9.88533 7.99644 9.648 7.82044 9.488C7.64444 9.328 7.43377 9.248 7.18844 9.248C6.99644 9.248 6.7991 9.29867 6.59644 9.4C6.39377 9.496 6.2071 9.64533 6.03644 9.848C5.8711 10.0453 5.73244 10.296 5.62044 10.6C5.51377 10.904 5.46044 11.2613 5.46044 11.672ZM8.61244 10.16C8.61244 10.6613 8.54044 11.096 8.39644 11.464C8.25777 11.832 8.07644 12.1387 7.85244 12.384C7.63377 12.624 7.38844 12.8027 7.11644 12.92C6.84977 13.0373 6.58577 13.096 6.32444 13.096C6.13777 13.096 5.9591 13.0667 5.78844 13.008C5.6231 12.9493 5.47644 12.8613 5.34844 12.744C5.22044 12.6267 5.1191 12.4827 5.04444 12.312C4.96977 12.136 4.93244 11.9333 4.93244 11.704C4.93244 11.2027 5.00177 10.768 5.14044 10.4C5.28444 10.032 5.46577 9.728 5.68444 9.488C5.90844 9.248 6.15377 9.06933 6.42044 8.952C6.69244 8.83467 6.9591 8.776 7.22044 8.776C7.4071 8.776 7.5831 8.80533 7.74844 8.864C7.9191 8.92267 8.06844 9.01067 8.19644 9.128C8.32444 9.24533 8.42577 9.392 8.50044 9.568C8.5751 9.73867 8.61244 9.936 8.61244 10.16ZM10.3274 13H9.78338C9.67138 12.4133 9.58071 11.7707 9.51138 11.072C9.44738 10.3733 9.41004 9.63733 9.39938 8.864H9.91138C9.91671 9.14667 9.92738 9.456 9.94338 9.792C9.95938 10.1227 9.98071 10.4533 10.0074 10.784C10.034 11.1147 10.0634 11.4267 10.0954 11.72C10.1274 12.0133 10.1647 12.2587 10.2074 12.456C10.378 12.216 10.5514 11.9493 10.7274 11.656C10.9087 11.3627 11.0794 11.0587 11.2394 10.744C11.4047 10.424 11.5567 10.104 11.6954 9.784C11.8394 9.464 11.9594 9.15733 12.0554 8.864H12.5914C12.5914 9.12533 12.5967 9.41067 12.6074 9.72C12.6234 10.0293 12.642 10.344 12.6634 10.664C12.6847 10.984 12.7087 11.2987 12.7354 11.608C12.7674 11.9173 12.802 12.2 12.8394 12.456C12.9674 12.312 13.122 12.096 13.3034 11.808C13.49 11.5147 13.6767 11.1973 13.8634 10.856C14.05 10.5093 14.2234 10.16 14.3834 9.808C14.5487 9.456 14.6714 9.14133 14.7514 8.864H15.2634C15.1407 9.25867 14.9807 9.664 14.7834 10.08C14.586 10.4907 14.3754 10.8827 14.1514 11.256C13.9327 11.624 13.714 11.9627 13.4954 12.272C13.2767 12.576 13.0847 12.8187 12.9194 13H12.3754C12.322 12.5307 12.2714 12.024 12.2234 11.48C12.1754 10.936 12.146 10.4 12.1354 9.872C12.0287 10.1227 11.9034 10.392 11.7594 10.68C11.6207 10.9627 11.4714 11.2453 11.3114 11.528C11.1514 11.8053 10.986 12.072 10.8154 12.328C10.65 12.584 10.4874 12.808 10.3274 13ZM18.7809 9.832C18.7809 10.1307 18.7063 10.3733 18.5569 10.56C18.4129 10.7467 18.2076 10.896 17.9409 11.008C17.6796 11.1147 17.3623 11.192 16.9889 11.24C16.6209 11.288 16.2103 11.3227 15.7569 11.344V11.512C15.7569 11.6667 15.7729 11.8107 15.8049 11.944C15.8369 12.0773 15.8956 12.1947 15.9809 12.296C16.0663 12.392 16.1836 12.4693 16.3329 12.528C16.4876 12.5867 16.6849 12.616 16.9249 12.616C17.1116 12.616 17.2983 12.5893 17.4849 12.536C17.6769 12.4827 17.8583 12.4027 18.0289 12.296L18.0849 12.776C17.9036 12.8773 17.7036 12.9547 17.4849 13.008C17.2663 13.0667 17.0449 13.096 16.8209 13.096C16.5276 13.096 16.2796 13.0587 16.0769 12.984C15.8796 12.9093 15.7169 12.8053 15.5889 12.672C15.4663 12.5387 15.3783 12.3787 15.3249 12.192C15.2716 12.0053 15.2449 11.8 15.2449 11.576C15.2449 11.2347 15.2956 10.896 15.3969 10.56C15.5036 10.224 15.6583 9.92267 15.8609 9.656C16.0636 9.38933 16.3116 9.176 16.6049 9.016C16.9036 8.85067 17.2423 8.768 17.6209 8.768C17.9943 8.768 18.2796 8.86667 18.4769 9.064C18.6796 9.256 18.7809 9.512 18.7809 9.832ZM17.5729 9.24C17.3596 9.24 17.1596 9.28533 16.9729 9.376C16.7863 9.46133 16.6183 9.57867 16.4689 9.728C16.3196 9.87733 16.1889 10.0507 16.0769 10.248C15.9703 10.4453 15.8903 10.6533 15.8369 10.872C16.2903 10.8613 16.6716 10.832 16.9809 10.784C17.2903 10.736 17.5383 10.6693 17.7249 10.584C17.9169 10.4987 18.0529 10.3973 18.1329 10.28C18.2129 10.1573 18.2529 10.0187 18.2529 9.864C18.2529 9.656 18.1889 9.50133 18.0609 9.4C17.9383 9.29333 17.7756 9.24 17.5729 9.24ZM19.9752 9.048C20.1779 8.968 20.3992 8.90133 20.6392 8.848C20.8845 8.79467 21.1245 8.768 21.3592 8.768C21.4819 8.768 21.5992 8.776 21.7112 8.792C21.8232 8.808 21.9299 8.83467 22.0312 8.872L21.8952 9.344C21.6872 9.28 21.4739 9.248 21.2552 9.248C21.1165 9.248 20.9779 9.25867 20.8392 9.28C20.7005 9.30133 20.5619 9.33333 20.4232 9.376L19.5512 13H19.0312L19.9752 9.048ZM25.6169 9.832C25.6169 10.1307 25.5422 10.3733 25.3929 10.56C25.2489 10.7467 25.0435 10.896 24.7769 11.008C24.5155 11.1147 24.1982 11.192 23.8249 11.24C23.4569 11.288 23.0462 11.3227 22.5929 11.344V11.512C22.5929 11.6667 22.6089 11.8107 22.6409 11.944C22.6729 12.0773 22.7315 12.1947 22.8169 12.296C22.9022 12.392 23.0195 12.4693 23.1689 12.528C23.3235 12.5867 23.5209 12.616 23.7609 12.616C23.9475 12.616 24.1342 12.5893 24.3209 12.536C24.5129 12.4827 24.6942 12.4027 24.8649 12.296L24.9209 12.776C24.7395 12.8773 24.5395 12.9547 24.3209 13.008C24.1022 13.0667 23.8809 13.096 23.6569 13.096C23.3635 13.096 23.1155 13.0587 22.9129 12.984C22.7155 12.9093 22.5529 12.8053 22.4249 12.672C22.3022 12.5387 22.2142 12.3787 22.1609 12.192C22.1075 12.0053 22.0809 11.8 22.0809 11.576C22.0809 11.2347 22.1315 10.896 22.2329 10.56C22.3395 10.224 22.4942 9.92267 22.6969 9.656C22.8995 9.38933 23.1475 9.176 23.4409 9.016C23.7395 8.85067 24.0782 8.768 24.4569 8.768C24.8302 8.768 25.1155 8.86667 25.3129 9.064C25.5155 9.256 25.6169 9.512 25.6169 9.832ZM24.4089 9.24C24.1955 9.24 23.9955 9.28533 23.8089 9.376C23.6222 9.46133 23.4542 9.57867 23.3049 9.728C23.1555 9.87733 23.0249 10.0507 22.9129 10.248C22.8062 10.4453 22.7262 10.6533 22.6729 10.872C23.1262 10.8613 23.5075 10.832 23.8169 10.784C24.1262 10.736 24.3742 10.6693 24.5609 10.584C24.7529 10.4987 24.8889 10.3973 24.9689 10.28C25.0489 10.1573 25.0889 10.0187 25.0889 9.864C25.0889 9.656 25.0249 9.50133 24.8969 9.4C24.7742 9.29333 24.6115 9.24 24.4089 9.24ZM29.1471 9.288C29.0725 9.27733 28.9898 9.26933 28.8991 9.264C28.8085 9.25333 28.7258 9.248 28.6511 9.248C28.2778 9.248 27.9551 9.31733 27.6831 9.456C27.4165 9.58933 27.1951 9.76533 27.0191 9.984C26.8485 10.1973 26.7205 10.4373 26.6351 10.704C26.5551 10.9653 26.5151 11.224 26.5151 11.48C26.5151 11.64 26.5285 11.7893 26.5551 11.928C26.5871 12.0613 26.6351 12.1813 26.6991 12.288C26.7631 12.3893 26.8458 12.4693 26.9471 12.528C27.0485 12.5867 27.1711 12.616 27.3151 12.616C27.4485 12.616 27.5738 12.5973 27.6911 12.56C27.8138 12.5227 27.9258 12.4773 28.0271 12.424C28.1338 12.3653 28.2298 12.3013 28.3151 12.232C28.4005 12.1627 28.4725 12.096 28.5311 12.032C28.5311 11.8933 28.5498 11.7387 28.5871 11.568C28.6245 11.392 28.6671 11.2107 28.7151 11.024L29.1471 9.288ZM28.6751 13.048C28.6485 12.9947 28.6218 12.9253 28.5951 12.84C28.5685 12.7493 28.5498 12.6613 28.5391 12.576C28.4911 12.6293 28.4271 12.688 28.3471 12.752C28.2725 12.8107 28.1818 12.8667 28.0751 12.92C27.9685 12.968 27.8485 13.008 27.7151 13.04C27.5818 13.0773 27.4351 13.096 27.2751 13.096C27.0458 13.096 26.8485 13.056 26.6831 12.976C26.5231 12.8907 26.3898 12.7787 26.2831 12.64C26.1818 12.5013 26.1071 12.3387 26.0591 12.152C26.0111 11.96 25.9871 11.76 25.9871 11.552C25.9871 11.216 26.0405 10.8827 26.1471 10.552C26.2591 10.2213 26.4271 9.92533 26.6511 9.664C26.8805 9.39733 27.1685 9.18133 27.5151 9.016C27.8618 8.85067 28.2698 8.768 28.7391 8.768C28.9098 8.768 29.0831 8.784 29.2591 8.816L29.7151 6.888L30.2591 6.792L29.1071 11.568C29.0805 11.664 29.0591 11.7573 29.0431 11.848C29.0325 11.9387 29.0271 12.0267 29.0271 12.112C29.0271 12.2667 29.0405 12.4133 29.0671 12.552C29.0938 12.6907 29.1418 12.8293 29.2111 12.968L28.6751 13.048ZM32.6148 12.528C32.8068 12.5867 32.9961 12.616 33.1828 12.616C33.5295 12.616 33.8335 12.5467 34.0948 12.408C34.3615 12.2693 34.5828 12.0907 34.7588 11.872C34.9348 11.6533 35.0681 11.4107 35.1588 11.144C35.2495 10.8773 35.2948 10.6133 35.2948 10.352C35.2948 9.968 35.2095 9.688 35.0388 9.512C34.8735 9.336 34.6628 9.248 34.4068 9.248C34.2361 9.248 34.0521 9.288 33.8548 9.368C33.6628 9.44267 33.4735 9.552 33.2868 9.696L32.6148 12.528ZM33.4388 9.088C33.5988 8.98133 33.7695 8.90133 33.9508 8.848C34.1321 8.79467 34.3108 8.768 34.4868 8.768C34.9401 8.768 35.2761 8.90667 35.4948 9.184C35.7135 9.46133 35.8228 9.83733 35.8228 10.312C35.8228 10.6533 35.7641 10.992 35.6468 11.328C35.5295 11.6587 35.3561 11.9547 35.1268 12.216C34.8975 12.4773 34.6121 12.6907 34.2708 12.856C33.9295 13.016 33.5348 13.096 33.0868 13.096C32.7081 13.096 32.3481 13.0187 32.0068 12.864L33.4388 6.888L33.9828 6.792L33.4388 9.088ZM35.2198 13.928C35.3638 14.008 35.5265 14.048 35.7078 14.048C35.9798 14.048 36.2465 13.9733 36.5078 13.824C36.7691 13.6747 37.0118 13.448 37.2358 13.144C37.0118 12.4347 36.8358 11.7147 36.7078 10.984C36.5798 10.2533 36.5051 9.54667 36.4838 8.864H37.0278C37.0385 9.12 37.0545 9.4 37.0758 9.704C37.1025 10.008 37.1398 10.3253 37.1878 10.656C37.2358 10.9867 37.2945 11.3253 37.3638 11.672C37.4331 12.0133 37.5185 12.3467 37.6198 12.672C37.8598 12.2933 38.0758 11.912 38.2678 11.528C38.4598 11.1387 38.6278 10.7733 38.7718 10.432C38.9158 10.0907 39.0331 9.784 39.1238 9.512C39.2198 9.23467 39.2891 9.01867 39.3318 8.864H39.8438C39.8118 8.976 39.7531 9.168 39.6678 9.44C39.5825 9.70667 39.4678 10.0187 39.3238 10.376C39.1798 10.7333 39.0038 11.12 38.7958 11.536C38.5931 11.9467 38.3585 12.3493 38.0918 12.744C37.6811 13.3573 37.2838 13.8027 36.8998 14.08C36.5158 14.3627 36.1158 14.504 35.6998 14.504C35.6038 14.504 35.4998 14.496 35.3878 14.48C35.2758 14.464 35.1585 14.424 35.0358 14.36L35.2198 13.928Z" fill="#606D83"/>
<defs>
<linearGradient id="paint0_linear_8543_6687" x1="38.5225" y1="22.6675" x2="49.6773" y2="22.6675" gradientUnits="userSpaceOnUse">
<stop stop-color="#ED6D1B"/>
<stop offset="0.24" stop-color="#ED6D1B"/>
<stop offset="1" stop-color="#E3302D"/>
</linearGradient>
</defs>
</svg>
