<svg width="1440" height="744" viewBox="0 0 1440 744" fill="none" xmlns="http://www.w3.org/2000/svg">
<g clip-path="url(#clip0_8689_12388)">
<rect width="1440" height="744" rx="2" fill="url(#paint0_linear_8689_12388)"/>
<path opacity="0.6" d="M1719.6 216.812C1686.33 211.87 1493.66 188.044 1398.25 167.906C1363.55 159.349 1337.7 138.695 1329.28 99.0093C1325.39 80.6417 1326.97 62.2742 1330.93 44.1279C1339.79 3.55698 1358 -32.3667 1381.04 -65.266C1417.55 -117.344 1605.47 -375.596 1661.92 -453.493C1666.89 -461.607 1663.72 -462.566 1662.07 -464.041C1661.35 -464.705 1660.34 -465 1659.26 -465C1653.93 -465 1645.36 -458.361 1641.47 -454.23C1535.85 -343.509 1429.93 -233.23 1324.81 -121.991C1269.37 -63.2743 1211.12 -8.54053 1145.45 36.9727C1030.4 116.639 906.049 157.579 768.814 180.446C663.404 198.002 522.28 208.846 469.143 215.116C453.231 216.96 429.326 215.632 428.03 230.902C427.526 237.245 433.43 239.975 437.03 240.491C470.295 245.507 503.56 250.302 536.825 255.17C586.074 262.399 733.605 283.422 757.582 289.471C791.207 297.88 816.767 317.871 825.911 356.081C830.087 373.711 829.224 391.562 825.84 409.266C818.639 447.181 803.159 481.556 782.062 512.316C777.454 519.029 770.038 529.577 760.606 542.929C734.325 579.959 691.916 638.75 647.779 699.828C587.946 782.592 525.016 869.34 494.992 910.649C493.912 912.124 488.152 919.722 491.536 922.304C492.976 923.41 494.416 924 496 924C500.32 924 505.864 919.943 515.728 911.091C573.69 850.308 631.867 789.674 689.9 728.891C735.693 680.87 781.486 632.849 826.919 584.458C828.144 583.204 829.368 581.877 830.592 580.623C895.249 511.874 964.299 449.689 1042.56 399.381C1150.86 329.747 1266.35 288.734 1393.43 276.489C1443.97 271.62 1686.4 242.335 1709.01 239.237C1714.2 238.499 1727.8 236.508 1730.61 226.992C1733.28 218.435 1721.4 217.107 1719.6 216.812Z" fill="url(#paint1_linear_8689_12388)"/>
</g>
<defs>
<linearGradient id="paint0_linear_8689_12388" x1="720" y1="63.5" x2="720" y2="744" gradientUnits="userSpaceOnUse">
<stop stop-color="#F3F8FA"/>
<stop offset="0.484375" stop-color="#F5F3F8" stop-opacity="0.715523"/>
<stop offset="0.836972" stop-color="#FFF5F4" stop-opacity="0.262661"/>
<stop offset="1" stop-color="#E5EFFF" stop-opacity="0"/>
</linearGradient>
<linearGradient id="paint1_linear_8689_12388" x1="1109" y1="40.5" x2="511.5" y2="1229" gradientUnits="userSpaceOnUse">
<stop stop-color="white"/>
<stop offset="1" stop-color="white" stop-opacity="0"/>
</linearGradient>
<clipPath id="clip0_8689_12388">
<rect width="1440" height="744" rx="2" fill="white"/>
</clipPath>
</defs>
</svg>
