<svg width="14" height="13" viewBox="0 0 14 13" fill="none" xmlns="http://www.w3.org/2000/svg">
<path d="M2.40625 5C3.00781 5 3.5 5.49219 3.5 6.09375V11.7812C3.5 12.4102 3.00781 12.875 2.40625 12.875H1.09375C0.464844 12.875 0 12.4102 0 11.7812V6.09375C0 5.49219 0.464844 5 1.09375 5H2.40625ZM2.625 11.7812V6.09375C2.625 5.98438 2.51562 5.875 2.40625 5.875H1.09375C0.957031 5.875 0.875 5.98438 0.875 6.09375V11.7812C0.875 11.918 0.957031 12 1.09375 12H2.40625C2.51562 12 2.625 11.918 2.625 11.7812ZM14 5.82031C14 6.47656 13.6172 7.05078 13.043 7.32422C13.125 7.48828 13.1523 7.70703 13.1523 7.89844C13.1523 8.52734 12.7969 9.07422 12.2773 9.375C12.3047 9.48438 12.332 9.62109 12.332 9.75781C12.332 10.3594 12.0039 10.9062 11.5117 11.207C11.5117 12.1367 10.7461 12.875 9.81641 12.875H8.28516C6.125 12.875 4.34766 11.1523 4.375 10.6875C4.375 10.4688 4.56641 10.25 4.8125 10.25C5.33203 10.25 6.04297 12 8.28516 12H9.81641C10.2539 12 10.6367 11.6445 10.6367 11.207C10.6367 11.0703 10.582 11.043 10.582 10.9336C10.582 10.3594 11.457 10.6055 11.457 9.75781C11.457 9.40234 11.2656 9.34766 11.2656 9.10156C11.2656 8.85547 11.457 8.71875 11.6211 8.69141C12.0039 8.60938 12.2773 8.28125 12.2773 7.89844C12.2773 7.40625 11.9492 7.37891 11.9492 7.05078C11.9492 6.83203 12.1406 6.64062 12.3594 6.61328C12.7695 6.58594 13.125 6.23047 13.125 5.82031C13.125 5.38281 12.7422 5 12.3047 5H8.80469C8.58594 5 8.36719 4.83594 8.36719 4.5625C8.36719 4.50781 8.36719 4.42578 8.42188 4.37109C8.88672 3.49609 9.13281 2.56641 9.13281 2.29297C9.13281 1.96484 8.88672 1.5 8.3125 1.5C7.875 1.5 7.79297 1.63672 7.54688 2.40234C6.94531 4.23438 6.53516 4.31641 5.11328 5.76562C5.03125 5.84766 4.92188 5.875 4.8125 5.875C4.56641 5.875 4.375 5.71094 4.375 5.4375C4.375 4.80859 5.96094 4.45312 6.69922 2.12891C6.94531 1.44531 7.19141 0.625 8.3125 0.625C9.37891 0.625 10.0078 1.47266 10.0078 2.29297C10.0078 2.67578 9.81641 3.38672 9.51562 4.125H12.3047C13.2344 4.125 14 4.89062 14 5.82031Z" fill="#238CAA"/>
</svg>
