<svg width="12" height="15" viewBox="0 0 12 15" fill="none" xmlns="http://www.w3.org/2000/svg">
<path opacity="0.5" d="M6.62891 14.4219C6.30078 14.832 5.67188 14.832 5.34375 14.4219C3.94922 12.6445 0.75 8.40625 0.75 6C0.75 3.10156 3.10156 0.75 6 0.75C8.89844 0.75 11.25 3.10156 11.25 6C11.25 8.40625 8.05078 12.6445 6.62891 14.4219ZM6 4.25C5.37109 4.25 4.79688 4.60547 4.46875 5.125C4.16797 5.67188 4.16797 6.35547 4.46875 6.875C4.79688 7.42188 5.37109 7.75 6 7.75C6.60156 7.75 7.17578 7.42188 7.50391 6.875C7.80469 6.35547 7.80469 5.67188 7.50391 5.125C7.17578 4.60547 6.60156 4.25 6 4.25Z" fill="#8FA0B5"/>
</svg>
