<svg width="48" height="48" viewBox="0 0 48 48" fill="none" xmlns="http://www.w3.org/2000/svg">
<rect width="48" height="48" rx="12" fill="url(#paint0_linear_8690_14560)"/>
<path opacity="0.5" d="M30 36H18C16.3125 36 15 34.6875 15 33V16.5H33V33C33 34.6875 31.6406 36 30 36ZM19.5 24.75C19.5 26.8594 21.4688 28.5 24 28.5C26.4844 28.5 28.5 26.8594 28.5 24.75C28.5 22.6875 26.4844 21 24 21C21.4688 21 19.5 22.6875 19.5 24.75Z" fill="#238CAA"/>
<path d="M13.5 15C12.6562 15 12 15.7031 12 16.5V19.5C12 20.3438 11.2969 21 10.5 21C9.65625 21 9 20.3438 9 19.5V16.5C9 14.0156 10.9688 12 13.5 12H34.5C36.9844 12 39 14.0156 39 16.5V19.5C39 20.3438 38.2969 21 37.5 21C36.6562 21 36 20.3438 36 19.5V16.5C36 15.7031 35.2969 15 34.5 15H13.5Z" fill="#238CAA"/>
<defs>
<linearGradient id="paint0_linear_8690_14560" x1="24.2286" y1="-16.3333" x2="24.2286" y2="100.5" gradientUnits="userSpaceOnUse">
<stop stop-color="white"/>
<stop offset="0.901042" stop-color="#EDF0FA"/>
</linearGradient>
</defs>
</svg>
