<svg width="48" height="48" viewBox="0 0 48 48" fill="none" xmlns="http://www.w3.org/2000/svg">
<rect width="48" height="48" rx="12" fill="url(#paint0_linear_8690_14567)"/>
<path opacity="0.5" d="M36 21.75C36 22.2656 35.6719 22.6875 35.25 22.8281L15 30.2812V13.5C15 13.4062 14.9531 13.3125 14.9062 13.2188L35.25 20.7188C35.6719 20.8594 36 21.2812 36 21.75Z" fill="#238CAA"/>
<path d="M13.5 12C14.2969 12 15 12.7031 15 13.5V35.25C15 35.6719 14.625 36 14.25 36H12.75C12.3281 36 12 35.6719 12 35.25V13.5C12 12.7031 12.6562 12 13.5 12Z" fill="#238CAA"/>
<defs>
<linearGradient id="paint0_linear_8690_14567" x1="24.2286" y1="-16.3333" x2="24.2286" y2="100.5" gradientUnits="userSpaceOnUse">
<stop stop-color="white"/>
<stop offset="0.901042" stop-color="#EDF0FA"/>
</linearGradient>
</defs>
</svg>
