<svg width="14" height="19" viewBox="0 0 14 19" fill="none" xmlns="http://www.w3.org/2000/svg">
<path d="M12.625 7C12.625 3.90625 10.0938 1.375 7 1.375C3.87109 1.375 1.375 3.90625 1.375 7C1.375 7.5625 1.55078 8.30078 1.9375 9.25C2.32422 10.1641 2.85156 11.1484 3.48438 12.1328C4.67969 14.0664 6.08594 15.9297 7 17.0547C7.87891 15.9297 9.28516 14.0664 10.5156 12.1328C11.1133 11.1484 11.6406 10.1641 12.0273 9.25C12.4141 8.30078 12.625 7.5625 12.625 7ZM13.75 7C13.75 10.0938 9.63672 15.543 7.80859 17.8281C7.38672 18.3555 6.57812 18.3555 6.15625 17.8281C4.36328 15.543 0.25 10.0938 0.25 7C0.25 3.27344 3.27344 0.25 7 0.25C10.7266 0.25 13.75 3.27344 13.75 7ZM5.3125 7C5.3125 7.63281 5.62891 8.16016 6.15625 8.47656C6.64844 8.79297 7.31641 8.79297 7.84375 8.47656C8.33594 8.16016 8.6875 7.63281 8.6875 7C8.6875 6.40234 8.33594 5.875 7.84375 5.55859C7.31641 5.24219 6.64844 5.24219 6.15625 5.55859C5.62891 5.875 5.3125 6.40234 5.3125 7ZM7 9.8125C5.98047 9.8125 5.06641 9.28516 4.53906 8.40625C4.04688 7.5625 4.04688 6.47266 4.53906 5.59375C5.06641 4.75 5.98047 4.1875 7 4.1875C7.98438 4.1875 8.89844 4.75 9.42578 5.59375C9.91797 6.47266 9.91797 7.5625 9.42578 8.40625C8.89844 9.28516 7.98438 9.8125 7 9.8125Z" fill="#1E293B"/>
</svg>
