<svg width="122" height="34" viewBox="0 0 122 34" fill="none" xmlns="http://www.w3.org/2000/svg">
<g opacity="0.5">
<path d="M54.9433 11.7822C55.1004 11.8694 55.2778 11.913 55.4755 11.913C55.7722 11.913 56.063 11.8316 56.348 11.6688C56.633 11.5059 56.8976 11.2587 57.1419 10.9272C56.8976 10.1536 56.7057 9.36838 56.5661 8.57153C56.4265 7.77469 56.3451 7.00402 56.3218 6.25952H56.9151C56.9267 6.53871 56.9442 6.84407 56.9674 7.1756C56.9965 7.50713 57.0372 7.85321 57.0896 8.21382C57.1419 8.57444 57.2059 8.94378 57.2815 9.32185C57.3571 9.69409 57.4502 10.0576 57.5607 10.4124C57.8224 9.99945 58.058 9.58358 58.2674 9.1648C58.4768 8.74021 58.66 8.34179 58.817 7.96954C58.9741 7.59729 59.1021 7.26285 59.2009 6.96621C59.3056 6.66376 59.3812 6.4282 59.4278 6.25952H59.9861C59.9512 6.38167 59.8873 6.59105 59.7942 6.88769C59.7011 7.17851 59.5761 7.51877 59.419 7.90846C59.262 8.29816 59.0701 8.71985 58.8432 9.17353C58.6222 9.62139 58.3663 10.0605 58.0755 10.4909C57.6276 11.1598 57.1943 11.6455 56.7755 11.9479C56.3567 12.2562 55.9205 12.4103 55.4668 12.4103C55.3621 12.4103 55.2487 12.4016 55.1266 12.3842C55.0044 12.3667 54.8765 12.3231 54.7427 12.2533L54.9433 11.7822Z" fill="#151A29"/>
<path d="M52.1035 10.2555C52.3129 10.3195 52.5194 10.3515 52.7229 10.3515C53.101 10.3515 53.4325 10.2759 53.7175 10.1246C54.0084 9.97342 54.2497 9.77857 54.4417 9.5401C54.6336 9.30163 54.779 9.03699 54.8779 8.74617C54.9768 8.45535 55.0262 8.16744 55.0262 7.88243C55.0262 7.46365 54.9332 7.15829 54.747 6.96635C54.5667 6.77441 54.337 6.67844 54.0578 6.67844C53.8717 6.67844 53.671 6.72207 53.4558 6.80931C53.2464 6.89074 53.0399 7.00998 52.8364 7.16702L52.1035 10.2555ZM53.0021 6.50395C53.1766 6.38762 53.3627 6.30038 53.5605 6.24221C53.7583 6.18405 53.9531 6.15497 54.145 6.15497C54.6394 6.15497 55.0059 6.30619 55.2443 6.60865C55.4828 6.9111 55.602 7.32115 55.602 7.83881C55.602 8.21106 55.5381 8.5804 55.4101 8.94683C55.2821 9.30745 55.0931 9.63026 54.843 9.91526C54.5929 10.2003 54.2817 10.4329 53.9095 10.6132C53.5372 10.7877 53.1068 10.875 52.6182 10.875C52.2053 10.875 51.8127 10.7906 51.4404 10.6219L53.0021 4.10469L53.5954 4L53.0021 6.50395Z" fill="#151A29"/>
<path d="M48.3202 6.72207C48.2388 6.71043 48.1486 6.70171 48.0498 6.69589C47.9509 6.68426 47.8607 6.67844 47.7793 6.67844C47.3722 6.67844 47.0203 6.75406 46.7236 6.90528C46.4328 7.05069 46.1914 7.24263 45.9995 7.4811C45.8134 7.71376 45.6738 7.9755 45.5807 8.26632C45.4935 8.55132 45.4498 8.83341 45.4498 9.1126C45.4498 9.28709 45.4644 9.44995 45.4935 9.60117C45.5284 9.74658 45.5807 9.87745 45.6505 9.99378C45.7203 10.1043 45.8105 10.1915 45.921 10.2555C46.0315 10.3195 46.1653 10.3515 46.3223 10.3515C46.4677 10.3515 46.6044 10.3311 46.7324 10.2904C46.8661 10.2497 46.9883 10.2003 47.0988 10.1421C47.2151 10.0781 47.3198 10.0083 47.4129 9.93271C47.5059 9.8571 47.5845 9.78439 47.6484 9.71459C47.6484 9.56337 47.6688 9.39469 47.7095 9.20857C47.7502 9.01663 47.7968 8.81887 47.8491 8.6153L48.3202 6.72207ZM47.8055 10.8226C47.7764 10.7645 47.7473 10.6888 47.7182 10.5958C47.6892 10.4969 47.6688 10.4009 47.6572 10.3079C47.6048 10.366 47.535 10.43 47.4478 10.4998C47.3663 10.5638 47.2675 10.6249 47.1511 10.683C47.0348 10.7354 46.9039 10.779 46.7585 10.8139C46.6131 10.8546 46.4532 10.875 46.2787 10.875C46.0286 10.875 45.8134 10.8313 45.6331 10.7441C45.4586 10.651 45.3132 10.5289 45.1968 10.3777C45.0863 10.2264 45.0049 10.049 44.9525 9.84546C44.9002 9.63607 44.874 9.41796 44.874 9.19112C44.874 8.82469 44.9322 8.46116 45.0485 8.10055C45.1707 7.73993 45.3539 7.41712 45.5982 7.13212C45.8483 6.8413 46.1624 6.60574 46.5404 6.42543C46.9185 6.24512 47.3634 6.15497 47.8753 6.15497C48.0614 6.15497 48.2504 6.17242 48.4424 6.20732L48.9397 4.10469L49.5329 4L48.2766 9.20857C48.2475 9.31326 48.2243 9.41505 48.2068 9.51393C48.1952 9.61281 48.1894 9.70878 48.1894 9.80184C48.1894 9.97051 48.2039 10.1305 48.233 10.2817C48.2621 10.4329 48.3144 10.5841 48.39 10.7354L47.8055 10.8226Z" fill="#151A29"/>
<path d="M44.4705 7.3154C44.4705 7.64111 44.3891 7.90576 44.2262 8.10933C44.0692 8.31291 43.8453 8.47576 43.5544 8.59791C43.2694 8.71424 42.9234 8.79857 42.5162 8.85092C42.1149 8.90327 41.667 8.94108 41.1726 8.96434V9.14756C41.1726 9.31623 41.1901 9.47328 41.225 9.61868C41.2599 9.76409 41.3239 9.89205 41.4169 10.0026C41.51 10.1073 41.6379 10.1916 41.8008 10.2556C41.9695 10.3196 42.1847 10.3515 42.4464 10.3515C42.65 10.3515 42.8536 10.3225 43.0571 10.2643C43.2665 10.2061 43.4643 10.1189 43.6504 10.0026L43.7115 10.526C43.5137 10.6366 43.2956 10.7209 43.0571 10.7791C42.8187 10.843 42.5773 10.875 42.333 10.875C42.0131 10.875 41.7426 10.8343 41.5216 10.7529C41.3064 10.6714 41.129 10.558 40.9894 10.4126C40.8556 10.2672 40.7597 10.0927 40.7015 9.88915C40.6433 9.68557 40.6143 9.46164 40.6143 9.21735C40.6143 8.84511 40.6695 8.47576 40.78 8.10933C40.8964 7.7429 41.065 7.41428 41.286 7.12346C41.5071 6.83264 41.7775 6.59998 42.0974 6.42549C42.4232 6.24518 42.7925 6.15503 43.2055 6.15503C43.6126 6.15503 43.9238 6.26263 44.139 6.47784C44.36 6.68723 44.4705 6.96641 44.4705 7.3154ZM43.1531 6.66978C42.9205 6.66978 42.7023 6.71922 42.4988 6.8181C42.2952 6.91116 42.112 7.03912 41.9491 7.20198C41.7863 7.36484 41.6438 7.55387 41.5216 7.76908C41.4053 7.98428 41.318 8.21112 41.2599 8.44959C41.7543 8.43796 42.1701 8.40597 42.5075 8.35362C42.8448 8.30127 43.1153 8.22857 43.3189 8.13551C43.5283 8.04244 43.6766 7.93193 43.7638 7.80397C43.8511 7.6702 43.8947 7.51897 43.8947 7.3503C43.8947 7.12346 43.8249 6.95478 43.6853 6.84427C43.5515 6.72794 43.3741 6.66978 43.1531 6.66978Z" fill="#151A29"/>
<path d="M38.3186 6.46039C38.5396 6.37314 38.781 6.30044 39.0427 6.24227C39.3103 6.18411 39.572 6.15503 39.8279 6.15503C39.9617 6.15503 40.0896 6.16375 40.2118 6.1812C40.3339 6.19865 40.4503 6.22773 40.5608 6.26845L40.4125 6.7832C40.1856 6.7134 39.953 6.6785 39.7145 6.6785C39.5633 6.6785 39.412 6.69014 39.2608 6.7134C39.1096 6.73667 38.9584 6.77157 38.8071 6.8181L37.8562 10.7703H37.2891L38.3186 6.46039Z" fill="#151A29"/>
<path d="M37.0164 7.3154C37.0164 7.64111 36.935 7.90576 36.7721 8.10933C36.6151 8.31291 36.3912 8.47576 36.1003 8.59791C35.8153 8.71424 35.4693 8.79857 35.0621 8.85092C34.6608 8.90327 34.2129 8.94108 33.7185 8.96434V9.14756C33.7185 9.31623 33.736 9.47328 33.7709 9.61868C33.8058 9.76409 33.8698 9.89205 33.9628 10.0026C34.0559 10.1073 34.1838 10.1916 34.3467 10.2556C34.5154 10.3196 34.7306 10.3515 34.9923 10.3515C35.1959 10.3515 35.3995 10.3225 35.603 10.2643C35.8124 10.2061 36.0102 10.1189 36.1963 10.0026L36.2574 10.526C36.0596 10.6366 35.8415 10.7209 35.603 10.7791C35.3646 10.843 35.1232 10.875 34.8789 10.875C34.559 10.875 34.2885 10.8343 34.0675 10.7529C33.8523 10.6714 33.6749 10.558 33.5353 10.4126C33.4015 10.2672 33.3056 10.0927 33.2474 9.88915C33.1892 9.68557 33.1602 9.46164 33.1602 9.21735C33.1602 8.84511 33.2154 8.47576 33.3259 8.10933C33.4423 7.7429 33.6109 7.41428 33.8319 7.12346C34.053 6.83264 34.3234 6.59998 34.6433 6.42549C34.9691 6.24518 35.3384 6.15503 35.7514 6.15503C36.1585 6.15503 36.4697 6.26263 36.6849 6.47784C36.9059 6.68723 37.0164 6.96641 37.0164 7.3154ZM35.699 6.66978C35.4664 6.66978 35.2482 6.71922 35.0447 6.8181C34.8411 6.91116 34.6579 7.03912 34.495 7.20198C34.3322 7.36484 34.1897 7.55387 34.0675 7.76908C33.9512 7.98428 33.8639 8.21112 33.8058 8.44959C34.3002 8.43796 34.716 8.40597 35.0534 8.35362C35.3907 8.30127 35.6612 8.22857 35.8648 8.13551C36.0742 8.04244 36.2225 7.93193 36.3097 7.80397C36.397 7.6702 36.4406 7.51897 36.4406 7.3503C36.4406 7.12346 36.3708 6.95478 36.2312 6.84427C36.0974 6.72794 35.92 6.66978 35.699 6.66978Z" fill="#151A29"/>
<path d="M27.7962 10.7701H27.203C27.0808 10.1303 26.9819 9.42945 26.9063 8.6675C26.8365 7.90556 26.7958 7.1029 26.7842 6.25952H27.3426C27.3484 6.56779 27.36 6.90514 27.3775 7.27157C27.3949 7.63219 27.4182 7.9928 27.4472 8.35342C27.4763 8.71403 27.5083 9.05429 27.5432 9.37419C27.5781 9.69409 27.6188 9.96165 27.6654 10.1769C27.8515 9.91512 28.0405 9.6243 28.2325 9.3044C28.4302 8.9845 28.6163 8.65296 28.7908 8.30979C28.9711 7.96081 29.1369 7.61183 29.2881 7.26285C29.4452 6.91386 29.576 6.57942 29.6807 6.25952H30.2653C30.2653 6.54452 30.2711 6.8557 30.2827 7.19305C30.3002 7.5304 30.3205 7.87357 30.3438 8.22255C30.3671 8.57153 30.3932 8.9147 30.4223 9.25205C30.4572 9.5894 30.495 9.89767 30.5357 10.1769C30.6753 10.0198 30.844 9.78425 31.0418 9.47016C31.2453 9.15026 31.4489 8.80419 31.6525 8.43194C31.8561 8.05387 32.0451 7.6729 32.2196 7.28902C32.3999 6.90514 32.5337 6.56197 32.6209 6.25952H33.1793C33.0455 6.68993 32.871 7.13198 32.6558 7.58566C32.4406 8.03352 32.2109 8.46102 31.9666 8.86817C31.7281 9.2695 31.4896 9.63884 31.2512 9.97619C31.0127 10.3077 30.8033 10.5724 30.623 10.7701H30.0297C29.9716 10.2583 29.9163 9.70573 29.864 9.11246C29.8116 8.51918 29.7796 7.93464 29.768 7.35882C29.6517 7.63219 29.515 7.92591 29.3579 8.24C29.2067 8.54827 29.0438 8.85653 28.8694 9.1648C28.6949 9.46726 28.5146 9.75807 28.3284 10.0373C28.1481 10.3164 27.9707 10.5607 27.7962 10.7701Z" fill="#151A29"/>
<path d="M22.4884 9.32211C22.4884 9.66528 22.5844 9.92411 22.7763 10.0986C22.9683 10.2731 23.198 10.3603 23.4656 10.3603C23.675 10.3603 23.8902 10.308 24.1112 10.2033C24.3322 10.0928 24.5329 9.92992 24.7132 9.71472C24.8993 9.4937 25.0505 9.21742 25.1669 8.88589C25.289 8.55435 25.3501 8.16465 25.3501 7.71679C25.3501 7.37363 25.2541 7.1148 25.0622 6.94031C24.8702 6.76581 24.6405 6.67857 24.3729 6.67857C24.1635 6.67857 23.9483 6.73382 23.7273 6.84433C23.5063 6.94903 23.3027 7.11189 23.1166 7.33291C22.9363 7.54812 22.7851 7.82149 22.6629 8.15302C22.5466 8.48455 22.4884 8.87425 22.4884 9.32211ZM25.9259 7.67317C25.9259 8.21991 25.8474 8.69394 25.6903 9.09527C25.5391 9.4966 25.3414 9.83105 25.0971 10.0986C24.8586 10.3603 24.591 10.5552 24.2944 10.6831C24.0036 10.8111 23.7157 10.8751 23.4307 10.8751C23.2271 10.8751 23.0323 10.8431 22.8461 10.7791C22.6658 10.7151 22.5059 10.6192 22.3663 10.4912C22.2267 10.3632 22.1162 10.2062 22.0347 10.0201C21.9533 9.82814 21.9126 9.60712 21.9126 9.35701C21.9126 8.81027 21.9882 8.33624 22.1394 7.93491C22.2965 7.53358 22.4942 7.20204 22.7327 6.94031C22.977 6.67857 23.2445 6.48372 23.5354 6.35576C23.832 6.2278 24.1228 6.16382 24.4078 6.16382C24.6114 6.16382 24.8033 6.19581 24.9836 6.25979C25.1698 6.32377 25.3326 6.41974 25.4722 6.5477C25.6118 6.67566 25.7223 6.83561 25.8038 7.02755C25.8852 7.21367 25.9259 7.42888 25.9259 7.67317Z" fill="#151A29"/>
<path d="M17.964 10.2469C18.1443 10.2992 18.3276 10.3254 18.5137 10.3254C18.8743 10.3254 19.1942 10.2556 19.4734 10.116C19.7526 9.97058 19.9881 9.78445 20.1801 9.55761C20.372 9.32496 20.5174 9.06613 20.6163 8.78113C20.7152 8.49031 20.7646 8.19658 20.7646 7.89994C20.7646 7.46372 20.6687 7.14672 20.4767 6.94897C20.2848 6.74539 19.9969 6.64361 19.613 6.64361C19.4792 6.64361 19.3425 6.65524 19.2029 6.6785C19.0692 6.70177 18.9296 6.73376 18.7842 6.77447L17.964 10.2469ZM18.2956 6.44294C18.5399 6.35569 18.7842 6.2859 19.0284 6.23355C19.2727 6.1812 19.5141 6.15503 19.7526 6.15503C20.8112 6.15503 21.3405 6.70759 21.3405 7.8127C21.3405 8.2024 21.2765 8.58046 21.1485 8.94689C21.0206 9.31332 20.8315 9.63904 20.5814 9.92404C20.3371 10.2032 20.0347 10.4272 19.6741 10.5958C19.3193 10.7645 18.9121 10.8488 18.4526 10.8488C18.2258 10.8488 18.0164 10.8227 17.8244 10.7703L17.4406 12.3844H16.8647L18.2956 6.44294Z" fill="#151A29"/>
</g>
<path d="M69.3185 15.837C68.8841 18.792 66.5551 21.1414 63.6107 21.5895C60.5819 22.0254 60.9801 24.5081 62.0179 25.4769C63.2125 26.591 64.8416 27.245 66.6034 27.245C70.3925 27.245 73.4575 24.1569 73.4575 20.3663C73.4575 18.4044 72.649 16.6484 71.3337 15.389C71.2372 15.3163 71.1648 15.2436 71.0682 15.1831C70.8752 15.0499 70.6821 14.9651 70.4287 14.9651C69.946 14.9651 69.403 15.1831 69.3185 15.837Z" fill="url(#paint0_linear_8561_4644)"/>
<path d="M59.0044 21.3284C59.0044 23.2756 59.822 25.0391 61.1276 26.3004C61.2253 26.3739 61.2985 26.4474 61.3961 26.5086C61.5791 26.6311 61.7866 26.7168 62.0306 26.7168C62.5187 26.7168 63.0556 26.4964 63.141 25.8473C63.5803 22.896 65.8988 20.5447 68.8518 20.1038C71.878 19.663 71.4876 17.177 70.4504 16.2095C69.2423 15.0951 67.6194 14.446 65.8622 14.446C62.0794 14.446 59.0044 17.5199 59.0044 21.3284Z" fill="url(#paint1_linear_8561_4644)"/>
<path d="M19.5251 16.8798C19.1703 16.8798 18.8418 16.893 18.5406 16.9198V19.9101H19.2724C19.6801 19.9101 20.0392 19.888 20.3497 19.8435C20.6602 19.799 20.9195 19.719 21.128 19.603C21.3361 19.4876 21.4937 19.3316 21.6001 19.1358C21.7065 18.9402 21.7598 18.6909 21.7598 18.3883C21.7598 18.1035 21.7065 17.8634 21.6001 17.6673C21.4937 17.4717 21.3406 17.3159 21.1412 17.2001C20.9416 17.0846 20.7043 17.0022 20.4294 16.9532C20.1546 16.9044 19.853 16.8798 19.5251 16.8798ZM19.4053 15.4246C20.7354 15.4246 21.753 15.6696 22.4582 16.159C23.1632 16.6485 23.5156 17.396 23.5156 18.4016C23.5156 19.6565 22.8992 20.5065 21.6667 20.9514C21.8349 21.1562 22.026 21.4053 22.2385 21.6991C22.4514 21.9927 22.6687 22.311 22.8904 22.6534C23.112 22.9962 23.3248 23.3476 23.5289 23.708C23.7327 24.0686 23.9146 24.4223 24.0743 24.7694H22.1987C22.03 24.4491 21.8483 24.1266 21.6534 23.8015C21.4581 23.4769 21.2608 23.1608 21.0615 22.8537C20.8619 22.5468 20.6644 22.2575 20.4695 21.9859C20.2744 21.7145 20.0923 21.4721 19.9241 21.2585C19.7997 21.2675 19.6933 21.2718 19.6048 21.2718H19.3522H18.5406V24.7694H16.8647V15.6516C17.2724 15.5628 17.707 15.5027 18.1683 15.4714C18.6293 15.4402 19.0414 15.4246 19.4053 15.4246Z" fill="#151A29"/>
<path d="M27.7444 23.6345C28.241 23.6345 28.6178 23.6078 28.8752 23.5545V21.7657C28.7865 21.7389 28.6577 21.7121 28.4895 21.6856C28.3208 21.6589 28.1346 21.6456 27.9308 21.6456C27.7531 21.6456 27.5736 21.6589 27.3921 21.6856C27.21 21.7121 27.046 21.7612 26.8998 21.8324C26.7535 21.9037 26.636 22.0039 26.5473 22.1327C26.4586 22.2619 26.4142 22.4244 26.4142 22.6199C26.4142 23.0028 26.5341 23.2675 26.7735 23.4143C27.0128 23.5611 27.3365 23.6345 27.7444 23.6345ZM27.6116 17.614C28.1433 17.614 28.5914 17.6805 28.9549 17.8141C29.3185 17.9476 29.6087 18.1344 29.8262 18.3748C30.0433 18.6151 30.1985 18.9068 30.2917 19.2492C30.3849 19.592 30.4316 19.968 30.4316 20.3772V24.6091C30.1832 24.6624 29.8083 24.7273 29.3074 24.8028C28.8063 24.8781 28.241 24.9162 27.6116 24.9162C27.1947 24.9162 26.8134 24.8762 26.4675 24.7959C26.1217 24.7159 25.8267 24.5869 25.583 24.4088C25.3391 24.231 25.1482 23.9996 25.0109 23.7146C24.8733 23.43 24.8047 23.0783 24.8047 22.66C24.8047 22.2596 24.8823 21.9215 25.0376 21.6456C25.1928 21.3698 25.4032 21.1448 25.6694 20.9713C25.9355 20.7979 26.2436 20.6732 26.594 20.5974C26.9441 20.5219 27.3098 20.484 27.6913 20.484C27.8685 20.484 28.0546 20.4953 28.25 20.5174C28.4451 20.5399 28.6534 20.5775 28.8752 20.6308V20.3639C28.8752 20.1769 28.8528 19.9991 28.8087 19.83C28.7641 19.6609 28.6867 19.5118 28.5758 19.3827C28.4649 19.2539 28.3186 19.1538 28.137 19.0823C27.9551 19.0112 27.7267 18.9755 27.4518 18.9755C27.0795 18.9755 26.7379 19.0022 26.4277 19.0557C26.1172 19.109 25.8643 19.1713 25.6694 19.2426L25.4698 17.9344C25.6739 17.8631 25.9707 17.7921 26.3611 17.7206C26.7511 17.6495 27.168 17.614 27.6116 17.614Z" fill="#151A29"/>
<path d="M37.2687 18.9222C37.0913 19.1093 36.8584 19.3716 36.5704 19.71C36.2821 20.0481 35.9739 20.4241 35.6458 20.838C35.3173 21.2516 34.9873 21.6835 34.6546 22.1329C34.3222 22.5823 34.0228 23.0118 33.7567 23.421H37.3485V24.7694H31.8149V23.7681C32.0098 23.4122 32.2538 23.0251 32.5466 22.6067C32.8394 22.1886 33.1406 21.7681 33.4509 21.3452C33.7614 20.9225 34.0695 20.52 34.3755 20.1371C34.6815 19.7545 34.954 19.4206 35.1937 19.1358H31.9879V17.7876H37.2687V18.9222Z" fill="#151A29"/>
<path d="M42.8956 20.591C42.8956 20.3687 42.8643 20.157 42.8024 19.9569C42.7404 19.7566 42.6496 19.583 42.5297 19.4362C42.4099 19.2894 42.2636 19.1739 42.0909 19.0891C41.9177 19.0046 41.7115 18.9625 41.4723 18.9625C41.2238 18.9625 41.0068 19.0091 40.8204 19.1024C40.6342 19.1959 40.4766 19.3183 40.3483 19.4696C40.2195 19.6209 40.1197 19.7945 40.0491 19.9903C39.9779 20.1861 39.9293 20.3864 39.9026 20.591H42.8956ZM38.2266 21.3118C38.2266 20.6978 38.3174 20.1594 38.4993 19.6965C38.681 19.234 38.9226 18.8488 39.2241 18.5419C39.5256 18.2348 39.8715 18.0035 40.2617 17.8477C40.6519 17.6919 41.0511 17.614 41.4588 17.614C42.4167 17.614 43.1637 17.9124 43.7004 18.5086C44.2369 19.1048 44.5049 19.9948 44.5049 21.1782C44.5049 21.2675 44.5028 21.3676 44.4985 21.4787C44.4938 21.5902 44.4872 21.6904 44.4785 21.7792H39.8894C39.9335 22.3398 40.1308 22.7736 40.4814 23.0807C40.8315 23.3878 41.3392 23.5412 42.0045 23.5412C42.3945 23.5412 42.7515 23.5057 43.0752 23.4345C43.3989 23.3632 43.6539 23.2877 43.8401 23.2074L44.0529 24.5291C43.9639 24.5738 43.8422 24.6205 43.6869 24.6693C43.5317 24.7183 43.3545 24.7628 43.1552 24.8028C42.9556 24.8428 42.7404 24.8762 42.5096 24.9029C42.2791 24.9297 42.0444 24.943 41.8049 24.943C41.1929 24.943 40.6607 24.8516 40.2086 24.6693C39.7563 24.4869 39.3838 24.2333 39.0912 23.9083C38.7987 23.5836 38.5812 23.2008 38.4394 22.7604C38.2976 22.3197 38.2266 21.8372 38.2266 21.3118Z" fill="#151A29"/>
<path d="M50.1711 21.0985C50.1711 20.3688 50.0801 19.8415 49.8986 19.5166C49.7165 19.1918 49.3775 19.0293 48.8808 19.0293C48.7034 19.0293 48.5083 19.0426 48.2957 19.0693C48.0827 19.0959 47.9232 19.1184 47.8168 19.1361V24.7695H46.207V18.0147C46.5175 17.9259 46.9231 17.8412 47.4242 17.7612C47.9251 17.6809 48.4552 17.6409 49.0139 17.6409C49.4928 17.6409 49.8852 17.7034 50.1912 17.8279C50.4972 17.9525 50.752 18.117 50.9559 18.3216C51.0533 18.2506 51.1776 18.1748 51.3284 18.0948C51.4791 18.0147 51.6478 17.9413 51.834 17.8746C52.0201 17.8078 52.2174 17.7524 52.4259 17.7076C52.634 17.6634 52.845 17.6409 53.0575 17.6409C53.5985 17.6409 54.0442 17.719 54.3945 17.8746C54.7449 18.0304 55.0198 18.2482 55.2191 18.5285C55.4187 18.8091 55.556 19.1472 55.6318 19.5434C55.7068 19.9393 55.7445 20.3733 55.7445 20.8449V24.7695H54.1353V21.0985C54.1353 20.3688 54.0465 19.8415 53.8691 19.5166C53.6917 19.1918 53.3503 19.0293 52.845 19.0293C52.5875 19.0293 52.3438 19.0715 52.1131 19.156C51.8826 19.2408 51.7097 19.3229 51.5945 19.403C51.6653 19.6255 51.7141 19.8616 51.7408 20.1107C51.7675 20.3598 51.7807 20.6269 51.7807 20.9115V24.7695H50.1711V21.0985Z" fill="#151A29"/>
<path d="M81.3472 17.8677C81.4267 18.3126 81.5305 18.7864 81.6586 19.289C81.7865 19.7917 81.9278 20.3034 82.0823 20.8238C82.2369 21.3443 82.4008 21.8583 82.574 22.3657C82.7477 22.8734 82.9234 23.3498 83.1013 23.7949C83.2526 23.457 83.4125 23.046 83.5819 22.5613C83.7508 22.0769 83.9198 21.5657 84.0892 21.0277C84.2583 20.49 84.4162 19.9468 84.5629 19.3984C84.7094 18.8503 84.8319 18.3403 84.9298 17.8677H85.7815C85.4613 19.2235 85.1124 20.4613 84.734 21.5818C84.3558 22.7022 83.9393 23.7646 83.4854 24.7695H82.684C82.5495 24.455 82.4084 24.1044 82.2612 23.7177C82.1135 23.3311 81.9615 22.9174 81.8054 22.4772C81.6489 22.0371 81.4977 21.5749 81.3517 21.0904C81.2051 20.6058 81.0659 20.11 80.9331 19.6032C80.8005 20.1114 80.6613 20.6081 80.5158 21.0938C80.37 21.5796 80.2194 22.0425 80.064 22.4829C79.908 22.9236 79.757 23.3372 79.6105 23.7241C79.4637 24.1115 79.3241 24.4598 79.1917 24.7695H78.3603C77.9057 23.7644 77.4899 22.7012 77.1134 21.5799C76.7364 20.4583 76.3891 19.2211 76.0713 17.8677H76.9888C77.0867 18.3393 77.2094 18.8486 77.3562 19.3958C77.5032 19.943 77.6615 20.4857 77.8306 21.0239C77.9998 21.5621 78.1711 22.0716 78.3442 22.5525C78.5177 23.0337 78.68 23.4433 78.8314 23.7816C79.0013 23.3384 79.1712 22.863 79.342 22.3548C79.5126 21.8467 79.6725 21.3346 79.8228 20.8179C79.9726 20.3015 80.1135 19.792 80.2459 19.2888C80.3782 18.7857 80.4969 18.3119 80.6021 17.8677H81.3472Z" fill="#151A29"/>
<path d="M92.1665 21.325C92.1665 20.4619 91.9669 19.7743 91.5679 19.2627C91.1687 18.7507 90.628 18.4948 89.945 18.4948C89.262 18.4948 88.7212 18.7507 88.3222 19.2627C87.9233 19.7743 87.7237 20.4619 87.7237 21.325C87.7237 22.1883 87.9233 22.8737 88.3222 23.3809C88.7212 23.8881 89.262 24.1417 89.945 24.1417C90.628 24.1417 91.1687 23.8881 91.5679 23.3809C91.9669 22.8737 92.1665 22.1883 92.1665 21.325ZM93.0845 21.325C93.0845 21.8679 93.0067 22.3618 92.8514 22.8067C92.6962 23.2519 92.4791 23.63 92.1998 23.9416C91.9204 24.2532 91.5901 24.4957 91.2086 24.6692C90.8274 24.8425 90.406 24.9294 89.945 24.9294C89.484 24.9294 89.0626 24.8425 88.6816 24.6692C88.2998 24.4957 87.9698 24.2532 87.6904 23.9416C87.4111 23.63 87.1938 23.2519 87.0388 22.8067C86.8833 22.3618 86.8057 21.8679 86.8057 21.325C86.8057 20.7823 86.8833 20.2884 87.0388 19.8432C87.1938 19.3983 87.4111 19.0178 87.6904 18.7017C87.9698 18.3861 88.2998 18.1413 88.6816 17.9675C89.0626 17.7939 89.484 17.7073 89.945 17.7073C90.406 17.7073 90.8274 17.7939 91.2086 17.9675C91.5901 18.1413 91.9204 18.3861 92.1998 18.7017C92.4791 19.0178 92.6962 19.3983 92.8514 19.8432C93.0067 20.2884 93.0845 20.7823 93.0845 21.325Z" fill="#151A29"/>
<path d="M97.3006 17.7341C97.5845 17.7341 97.8527 17.7564 98.1054 17.8009C98.3581 17.8454 98.5334 17.8899 98.631 17.9344L98.4579 18.6819C98.3869 18.6464 98.2427 18.6085 98.0256 18.5683C97.8081 18.5283 97.5222 18.5084 97.1678 18.5084C96.795 18.5084 96.4959 18.5351 96.2698 18.5884C96.0436 18.6419 95.8949 18.6864 95.8242 18.722V24.7692H94.9595V18.188C95.1812 18.0902 95.487 17.9901 95.8775 17.8876C96.2675 17.7855 96.7419 17.7341 97.3006 17.7341Z" fill="#151A29"/>
<path d="M101.663 21.0115C101.977 21.2331 102.293 21.4888 102.612 21.7789C102.932 22.0692 103.247 22.3836 103.557 22.7222C103.867 23.0606 104.16 23.4079 104.434 23.7643C104.708 24.1204 104.942 24.4554 105.135 24.7694H104.096C103.888 24.4185 103.646 24.0747 103.372 23.737C103.097 23.3999 102.808 23.0821 102.506 22.7842C102.205 22.4864 101.903 22.2146 101.601 21.9693C101.299 21.724 101.032 21.5395 100.799 21.4166V24.7694H99.9341V14.5702L100.799 14.4102V20.8405C100.984 20.6814 101.214 20.4645 101.49 20.1899C101.766 19.9155 102.048 19.6391 102.334 19.3612C102.621 19.0832 102.891 18.8142 103.145 18.5537C103.4 18.2933 103.614 18.0646 103.786 17.8676H104.843C104.639 18.0816 104.405 18.3189 104.142 18.5793C103.878 18.8402 103.604 19.1118 103.318 19.3943C103.032 19.677 102.75 19.9552 102.474 20.2292C102.197 20.5029 101.927 20.7638 101.663 21.0115Z" fill="#151A29"/>
<defs>
<linearGradient id="paint0_linear_8561_4644" x1="73.4575" y1="21.1052" x2="61.3904" y2="21.1052" gradientUnits="userSpaceOnUse">
<stop stop-color="#1FA8E0"/>
<stop offset="0.8" stop-color="#50529A"/>
<stop offset="1" stop-color="#50529A"/>
</linearGradient>
<linearGradient id="paint1_linear_8561_4644" x1="59.0044" y1="20.5814" x2="71.2069" y2="20.5814" gradientUnits="userSpaceOnUse">
<stop stop-color="#ED6D1B"/>
<stop offset="0.24" stop-color="#ED6D1B"/>
<stop offset="1" stop-color="#E3302D"/>
</linearGradient>
</defs>
</svg>
