<svg width="18" height="19" viewBox="0 0 18 19" fill="none" xmlns="http://www.w3.org/2000/svg">
<path d="M5.625 3.0625C5.625 3.16797 5.66016 3.30859 5.90625 3.51953C5.94141 3.55469 6.01172 3.625 6.04688 3.66016C5.51953 3.66016 4.99219 3.73047 4.5 3.80078V3.0625C4.5 2.53516 4.78125 2.11328 5.16797 1.76172C5.55469 1.44531 6.08203 1.16406 6.67969 0.953125C7.875 0.53125 9.49219 0.25 11.25 0.25C13.0078 0.25 14.5898 0.53125 15.7852 0.953125C16.3828 1.16406 16.9102 1.44531 17.2969 1.76172C17.6836 2.11328 18 2.53516 18 3.0625V6.71875V10.7266C18 11.2891 17.6836 11.7461 17.2969 12.0625C16.9453 12.4141 16.418 12.6953 15.8203 12.9414C15.4336 13.082 15.0469 13.1875 14.625 13.293V12.1328C14.9062 12.0625 15.1523 11.957 15.3984 11.8867C15.9258 11.6758 16.3125 11.4648 16.5586 11.2539C16.8047 11.0078 16.875 10.8672 16.875 10.7266V8.40625C16.5586 8.61719 16.207 8.79297 15.8203 8.93359C15.4336 9.07422 15.0469 9.17969 14.625 9.28516V8.125C14.9062 8.05469 15.1523 7.98438 15.3984 7.87891C15.9258 7.66797 16.3125 7.45703 16.5586 7.24609C16.8047 7.03516 16.875 6.85938 16.875 6.75391V4.71484C16.5586 4.89062 16.207 5.06641 15.8203 5.20703C15.1875 5.41797 14.4844 5.59375 13.7109 5.69922C13.6406 5.62891 13.5703 5.55859 13.5 5.52344C13.1484 5.20703 12.7266 4.92578 12.3047 4.71484C13.5352 4.64453 14.5898 4.43359 15.4336 4.11719C15.9258 3.94141 16.3125 3.73047 16.5586 3.51953C16.8047 3.30859 16.875 3.16797 16.875 3.0625C16.875 2.99219 16.8047 2.81641 16.5586 2.60547C16.3125 2.42969 15.9609 2.18359 15.4336 2.00781C14.3789 1.62109 12.9023 1.375 11.25 1.375C9.5625 1.375 8.08594 1.62109 7.06641 2.00781C6.53906 2.21875 6.15234 2.42969 5.90625 2.64062C5.66016 2.85156 5.58984 2.99219 5.58984 3.0625H5.625ZM1.125 7.5625C1.125 7.66797 1.16016 7.80859 1.40625 8.01953C1.65234 8.23047 2.03906 8.44141 2.56641 8.65234C3.58594 9.00391 5.0625 9.25 6.75 9.25C8.40234 9.25 9.87891 9.00391 10.9336 8.65234C11.4258 8.44141 11.8125 8.23047 12.0586 8.01953C12.3047 7.80859 12.375 7.66797 12.375 7.5625C12.375 7.49219 12.3047 7.35156 12.0586 7.14062C11.8125 6.92969 11.4609 6.71875 10.9336 6.50781C9.87891 6.12109 8.40234 5.875 6.75 5.875C5.0625 5.875 3.58594 6.12109 2.56641 6.50781C2.03906 6.71875 1.65234 6.92969 1.40625 7.14062C1.16016 7.35156 1.08984 7.49219 1.08984 7.5625H1.125ZM0 7.5625C0 7.03516 0.28125 6.61328 0.667969 6.26172C1.05469 5.94531 1.58203 5.66406 2.17969 5.45312C3.375 5.03125 4.99219 4.75 6.75 4.75C8.50781 4.75 10.0898 5.03125 11.2852 5.45312C11.8828 5.66406 12.4102 5.94531 12.7969 6.26172C13.1836 6.61328 13.5 7.03516 13.5 7.5625V11.2188V15.2266C13.5 15.7891 13.1836 16.2109 12.7969 16.5625C12.4453 16.9141 11.918 17.1953 11.3203 17.4414C10.125 17.8984 8.50781 18.1445 6.75 18.1445C4.99219 18.1445 3.33984 17.8984 2.14453 17.4414C1.54688 17.1953 1.05469 16.9141 0.667969 16.5625C0.28125 16.2461 0 15.7891 0 15.2266V11.2188V7.5625ZM12.375 9.21484C12.0586 9.39062 11.707 9.56641 11.2852 9.70703C10.0898 10.1289 8.50781 10.375 6.75 10.375C4.99219 10.375 3.375 10.1289 2.17969 9.70703C1.79297 9.56641 1.40625 9.39062 1.125 9.21484V11.2188C1.125 11.3594 1.16016 11.5 1.40625 11.7461C1.65234 11.957 2.03906 12.168 2.56641 12.3789C3.58594 12.7656 5.0625 13.0117 6.75 13.0117C8.40234 13.0117 9.87891 12.7656 10.8984 12.3789C11.4258 12.168 11.8125 11.957 12.0586 11.7461C12.3047 11.5 12.375 11.3594 12.375 11.2188V9.21484ZM1.125 15.2266C1.125 15.332 1.16016 15.5078 1.40625 15.7539C1.65234 15.9648 2.03906 16.1758 2.56641 16.3867C3.58594 16.7734 5.0625 17.0195 6.75 17.0195C8.40234 17.0195 9.87891 16.7734 10.8984 16.3867C11.4258 16.1758 11.8125 15.9648 12.0586 15.7539C12.3047 15.5078 12.375 15.3672 12.375 15.2266V12.9062C12.0586 13.1172 11.707 13.293 11.3203 13.4336C10.125 13.8906 8.50781 14.1367 6.75 14.1367C4.99219 14.1367 3.33984 13.8906 2.14453 13.4336C1.75781 13.293 1.40625 13.1172 1.125 12.9062V15.2266Z" fill="#1E293B"/>
</svg>
