<svg width="423" height="451" viewBox="0 0 423 451" fill="none" xmlns="http://www.w3.org/2000/svg">
<path opacity="0.1" d="M419.298 221.38C408.499 219.776 345.949 212.039 314.978 205.501C303.712 202.722 295.321 196.016 292.586 183.13C291.324 177.167 291.838 171.203 293.123 165.311C295.998 152.138 301.912 140.473 309.392 129.791C321.243 112.882 382.25 29.0288 400.575 3.73638C402.188 1.10175 401.159 0.790386 400.622 0.311363C400.388 0.0958026 400.061 0 399.71 0C397.981 0 395.199 2.1556 393.937 3.49686C359.647 39.4475 325.263 75.2545 291.137 111.373C273.138 130.438 254.229 148.21 232.911 162.988C195.559 188.855 155.192 202.148 110.64 209.573C76.4204 215.273 30.6068 218.794 13.3565 220.83C8.19081 221.428 0.430568 220.997 0.00983105 225.955C-0.153789 228.015 1.7629 228.901 2.93162 229.069C13.7305 230.697 24.5294 232.254 35.3284 233.835C51.3164 236.182 99.2103 243.008 106.994 244.972C117.91 247.703 126.208 254.194 129.176 266.6C130.532 272.325 130.251 278.121 129.153 283.869C126.815 296.18 121.79 307.341 114.941 317.329C113.445 319.508 111.038 322.933 107.976 327.268C99.4441 339.292 85.6766 358.381 71.3481 378.213C51.9241 405.086 31.495 433.252 21.7479 446.665C21.3973 447.144 19.5273 449.611 20.6259 450.449C21.0934 450.808 21.5609 451 22.0752 451C23.4776 451 25.2774 449.683 28.4797 446.809C47.296 427.073 66.1824 407.385 85.0221 387.649C99.8882 372.057 114.754 356.465 129.503 340.753C129.901 340.346 130.298 339.915 130.696 339.507C151.686 317.185 174.102 296.994 199.509 280.66C234.664 258.05 272.157 244.733 313.412 240.757C329.821 239.176 408.522 229.668 415.862 228.662C417.545 228.422 421.963 227.775 422.874 224.686C423.739 221.907 419.882 221.476 419.298 221.38Z" fill="white"/>
</svg>
