<svg width="815" height="345" viewBox="0 0 815 345" fill="none" xmlns="http://www.w3.org/2000/svg">
<path opacity="0.1" d="M807.478 151.562C786.681 148.47 666.224 133.564 606.581 120.965C584.884 115.612 568.724 102.69 563.457 77.8611C561.027 66.3698 562.017 54.8785 564.493 43.5257C570.029 18.1433 581.418 -4.3316 595.822 -24.9144C618.644 -57.4962 736.13 -219.066 771.421 -267.801C774.527 -272.877 772.547 -273.477 771.511 -274.4C771.061 -274.815 770.431 -275 769.756 -275C766.425 -275 761.068 -270.847 758.638 -268.262C692.602 -198.991 626.387 -129.997 560.666 -60.4036C526.006 -23.6684 489.59 10.5747 448.537 39.0491C376.605 88.8909 298.866 114.504 213.069 128.81C147.169 139.794 58.942 146.578 25.7218 150.501C15.7737 151.655 0.829182 150.824 0.0189325 160.377C-0.296165 164.346 3.39497 166.053 5.64566 166.376C26.4421 169.515 47.2384 172.514 68.0348 175.56C98.8243 180.083 191.058 193.236 206.047 197.02C227.069 202.281 243.049 214.787 248.765 238.693C251.376 249.723 250.836 260.891 248.721 271.967C244.219 295.688 234.541 317.194 221.352 336.438C218.471 340.638 213.835 347.237 207.938 355.59C191.508 378.758 164.995 415.539 137.401 453.751C99.9947 505.531 60.6525 559.803 41.8818 585.647C41.2066 586.57 37.6054 591.323 39.7211 592.939C40.6213 593.631 41.5217 594 42.512 594C45.2129 594 48.6789 591.462 54.8458 585.924C91.0819 547.896 127.453 509.961 163.734 471.934C192.363 441.89 220.992 411.847 249.396 381.573C250.161 380.788 250.926 379.957 251.691 379.173C292.114 336.161 335.282 297.257 384.212 265.783C451.913 222.218 524.115 196.558 603.565 188.897C635.164 185.852 786.726 167.53 800.86 165.592C804.102 165.13 812.609 163.884 814.365 157.931C816.03 152.578 808.603 151.747 807.478 151.562Z" fill="white"/>
</svg>
