<svg width="32" height="32" viewBox="0 0 32 32" fill="none" xmlns="http://www.w3.org/2000/svg">
<g clip-path="url(#clip0_8576_4810)">
<rect width="32" height="32" rx="16" fill="#F7F8FB"/>
<path opacity="0.5" d="M12.75 11.5C12.5 11.5 12.25 11.4688 12.0312 11.375C12.3438 9.46875 14 8 16 8C17.8438 8 19.4062 9.28125 19.875 11H18.75C18.0312 11 17.4062 10.6562 17.0312 10.0938C16.5312 10.9375 15.5625 11.5 14.5 11.5H12.75ZM15.5312 19.25L14.9375 18.2812C14.75 17.9375 14.9688 17.5 15.375 17.5H16H16.5938C17 17.5 17.2188 17.9375 17.0312 18.2812L16.4375 19.25L17.5 23.125L18.7188 18.0625C21.125 18.4375 23 20.5312 23 23.0625C23 23.5938 22.5625 24 22.0312 24H17.2812H14.6875H9.9375C9.40625 24 9 23.5938 9 23.0625C9 20.5312 10.8438 18.4375 13.25 18.0625L14.4688 23.125L15.5312 19.25Z" fill="#8FA0B5"/>
<path d="M14.5 11.5C15.5625 11.5 16.5312 10.9375 17.0312 10.0938C17.4062 10.6562 18.0312 11 18.75 11H19.875C19.9375 11.3438 20 11.6562 20 12C20 14.2188 18.1875 16 16 16C13.7812 16 12 14.2188 12 12C12 11.7812 12 11.5938 12.0312 11.375C12.25 11.4688 12.5 11.5 12.75 11.5H14.5Z" fill="#8FA0B5"/>
</g>
<defs>
<clipPath id="clip0_8576_4810">
<rect width="32" height="32" rx="16" fill="white"/>
</clipPath>
</defs>
</svg>
