<svg width="367" height="382" viewBox="0 0 367 382" fill="none" xmlns="http://www.w3.org/2000/svg">
<path d="M363.788 187.511C354.419 186.151 300.15 179.599 273.279 174.061C263.504 171.707 256.224 166.027 253.851 155.113C252.756 150.061 253.202 145.01 254.318 140.019C256.812 128.862 261.943 118.982 268.432 109.934C278.714 95.6116 331.645 24.5876 347.544 3.16474C348.943 0.933191 348.051 0.669462 347.584 0.263726C347.382 0.0811454 347.098 0 346.794 0C345.293 0 342.88 1.82581 341.784 2.96187C312.034 33.4123 282.202 63.7411 252.594 94.3335C236.978 110.482 220.572 125.535 202.077 138.052C169.67 159.961 134.646 171.22 95.9929 177.509C66.3033 182.338 26.5548 185.32 11.5883 187.044C7.10645 187.551 0.373566 187.186 0.00852954 191.385C-0.133429 193.13 1.52952 193.881 2.54351 194.023C11.9128 195.402 21.282 196.721 30.6513 198.06C44.5227 200.048 86.0761 205.83 92.8293 207.493C102.3 209.806 109.499 215.304 112.075 225.812C113.251 230.661 113.008 235.57 112.055 240.439C110.027 250.866 105.666 260.32 99.7244 268.779C98.4265 270.626 96.3377 273.527 93.681 277.198C86.2789 287.382 74.3341 303.551 61.9025 320.349C45.05 343.11 27.3254 366.967 18.8687 378.328C18.5645 378.734 16.9421 380.823 17.8953 381.533C18.3009 381.838 18.7065 382 19.1527 382C20.3695 382 21.931 380.884 24.7093 378.45C41.0346 361.733 57.4207 345.058 73.7662 328.341C86.6642 315.135 99.5622 301.928 112.359 288.62C112.704 288.275 113.048 287.91 113.393 287.565C131.604 268.658 151.053 251.556 173.097 237.72C203.598 218.57 236.127 207.29 271.92 203.923C286.157 202.584 354.439 194.53 360.807 193.678C362.267 193.475 366.1 192.927 366.891 190.31C367.641 187.957 364.295 187.592 363.788 187.511Z" fill="#F7F8FB"/>
</svg>
